<?xml version="1.0" encoding="utf-8"?>
<!-- Generator: Adobe Illustrator 18.0.0, SVG Export Plug-In . SVG Version: 6.00 Build 0)  -->
<!DOCTYPE svg PUBLIC "-//W3C//DTD SVG 1.1//EN" "http://www.w3.org/Graphics/SVG/1.1/DTD/svg11.dtd">
<svg version="1.1" id="final" xmlns="http://www.w3.org/2000/svg" xmlns:xlink="http://www.w3.org/1999/xlink" x="0px" y="0px"
	 viewBox="0 0 876.3 135" style="enable-background:new 0 0 876.3 135;" xml:space="preserve" height="50">
<g>
	<g>
		<g>
			<path style="fill:#FFFFFF;" d="M180.8,86.6H177V70.3h-6.1v-3.4h15.8l0.5,3.4h-6.4V86.6L180.8,86.6z"/>
		</g>
		<g>
			<path style="fill:#FFFFFF;" d="M210.6,86.6h-3.9v-8.5h-8.5v8.5h-3.8V66.8h3.8v7.7h8.5v-7.7h3.9V86.6L210.6,86.6z"/>
		</g>
		<g>
			<path style="fill:#FFFFFF;" d="M234.3,86.6h-12.7V66.8h12.4v3.4h-8.6v4.4h6.8l0.6,3.4h-7.4v5.1h8.8V86.6L234.3,86.6z"/>
		</g>
		<g>
			<path style="fill:#FFFFFF;" d="M264.1,86.9c-5,0-8-3-8-8.1v-12h3.8v11.9c0,3.2,1.5,4.9,4.3,4.9c2.8,0,4.3-1.7,4.3-4.8V66.8h3.9
				v11.9C272.3,83.9,269.2,86.9,264.1,86.9L264.1,86.9z"/>
		</g>
		<g>
			<path style="fill:#FFFFFF;" d="M298.9,86.6h-3.3l-9.4-13.8v13.8h-3.5V66.8h3.7l9,13.2V66.8h3.5V86.6L298.9,86.6z"/>
		</g>
		<g>
			<path style="fill:#FFFFFF;" d="M313.7,86.6h-3.9V66.8h3.9V86.6L313.7,86.6z"/>
		</g>
		<g>
			<path style="fill:#FFFFFF;" d="M332.4,86.9h-3.5l-7.6-19.5l3.9-0.8l5.6,15.4l5.5-15h3.9L332.4,86.9L332.4,86.9z"/>
		</g>
		<g>
			<path style="fill:#FFFFFF;" d="M360.1,86.6h-12.7V66.8h12.4v3.4h-8.6v4.4h6.8l0.6,3.4h-7.4v5.1h8.8V86.6L360.1,86.6z"/>
		</g>
		<g>
			<path style="fill:#FFFFFF;" d="M381.1,86.8l-5.6-7.7h-1.8v7.5h-3.8V66.8h6.2c4.7,0,7.5,2.3,7.5,6.1c0,2.7-1.4,4.6-3.9,5.6
				l5.5,7.3L381.1,86.8L381.1,86.8z M373.6,76h2.3c2.4,0,3.7-1.1,3.7-3c0-2.3-2-2.8-3.7-2.8h-2.3V76L373.6,76z"/>
		</g>
		<g>
			<path style="fill:#FFFFFF;" d="M399.1,86.8c-2.1,0-4.5-0.5-6.7-1.5l-0.1-0.1l0.6-3.5l0.2,0.1c2,1,4.4,1.7,6.2,1.7
				c2.2,0,3.6-1,3.6-2.4c0-1.5-0.9-2-3.7-3c-4.1-1.4-6.2-2.7-6.2-5.9c0-3.4,2.7-5.8,6.7-5.8c2,0,4,0.4,5.7,1.2l0.1,0.1l-0.6,3.6
				l-0.2-0.1c-1.8-1-3.5-1.4-5.1-1.4c-1.7,0-3,0.9-3,2.1c0,1.3,0.9,1.8,3.9,2.9c3.9,1.3,6,2.7,6,6C406.4,84.4,403.4,86.8,399.1,86.8
				L399.1,86.8z"/>
		</g>
		<g>
			<path style="fill:#FFFFFF;" d="M419.8,86.6h-3.9V66.8h3.9V86.6L419.8,86.6z"/>
		</g>
		<g>
			<path style="fill:#FFFFFF;" d="M437.1,86.6h-3.9V70.3h-6.1v-3.4H443l0.5,3.4h-6.4V86.6L437.1,86.6z"/>
		</g>
		<g>
			<path style="fill:#FFFFFF;" d="M457,86.6h-3.9v-7.6l-7.1-11.6l3.9-0.8l5.1,9l5-8.6h4.2L457,78.9V86.6L457,86.6z"/>
		</g>
		<g>
			<path style="fill:#FFFFFF;" d="M489,86.9c-4.7,0-9.5-3.5-9.5-10.2c0-6.7,4.8-10.3,9.5-10.3c4.7,0,9.5,3.5,9.5,10.2
				C498.4,83.4,493.7,86.9,489,86.9L489,86.9z M489,69.8c-3.3,0-5.6,2.8-5.6,6.9c0,4,2.4,7,5.6,7c3.3,0,5.6-2.8,5.6-6.9
				C494.5,72.7,492.2,69.8,489,69.8L489,69.8z"/>
		</g>
		<g>
			<path style="fill:#FFFFFF;" d="M511.1,86.6h-3.8V66.8h12.1v3.4h-8.3v4.7h6.5l0.6,3.4h-7V86.6L511.1,86.6z"/>
		</g>
		<g>
			<path style="fill:#FFFFFF;" d="M546.8,86.6h-6.5V66.8h6.4c4.2,0,6.6,1.9,6.6,5.1c0,1.9-0.8,3.3-2.5,4.2c2.2,0.8,3.3,2.3,3.3,4.6
				C554.2,84.5,551.6,86.6,546.8,86.6L546.8,86.6z M543.9,83.3h2.9c2.6,0,3.8-0.9,3.8-2.7c0-1.9-1.3-2.9-3.8-2.9h-2.9V83.3
				L543.9,83.3z M543.9,74.7h2.5c2.2,0,3.3-0.8,3.3-2.4c0-0.9-0.3-2.2-3.2-2.2h-2.6V74.7L543.9,74.7z"/>
		</g>
		<g>
			<path style="fill:#FFFFFF;" d="M574.8,86.8l-5.6-7.7h-1.8v7.5h-3.8V66.8h6.2c4.7,0,7.5,2.3,7.5,6.1c0,2.7-1.4,4.6-3.9,5.6
				l5.5,7.3L574.8,86.8L574.8,86.8z M567.4,76h2.3c2.4,0,3.7-1.1,3.7-3c0-2.3-2-2.8-3.7-2.8h-2.3V76L567.4,76z"/>
		</g>
		<g>
			<path style="fill:#FFFFFF;" d="M591.1,86.6h-3.9V66.8h3.9V86.6L591.1,86.6z"/>
		</g>
		<g>
			<path style="fill:#FFFFFF;" d="M608.5,86.6h-3.9V70.3h-6.1v-3.4h15.8l0.5,3.4h-6.4V86.6L608.5,86.6z"/>
		</g>
		<g>
			<path style="fill:#FFFFFF;" d="M625.7,86.6h-3.9V66.8h3.9V86.6L625.7,86.6z"/>
		</g>
		<g>
			<path style="fill:#FFFFFF;" d="M641.7,86.8c-2.1,0-4.5-0.5-6.7-1.5l-0.1-0.1l0.6-3.5l0.2,0.1c2,1,4.4,1.7,6.2,1.7
				c2.2,0,3.6-1,3.6-2.4c0-1.5-0.9-2-3.7-3c-4.1-1.4-6.2-2.7-6.2-5.9c0-3.4,2.7-5.8,6.7-5.8c2,0,4,0.4,5.7,1.2l0.1,0.1l-0.6,3.6
				l-0.2-0.1c-1.8-1-3.5-1.4-5.1-1.4c-1.7,0-3,0.9-3,2.1c0,1.3,0.9,1.8,3.9,2.9c3.9,1.3,6,2.7,6,6C649,84.4,646,86.8,641.7,86.8
				L641.7,86.8z"/>
		</g>
		<g>
			<path style="fill:#FFFFFF;" d="M673.5,86.6h-3.9v-8.5h-8.5v8.5h-3.8V66.8h3.8v7.7h8.5v-7.7h3.9V86.6L673.5,86.6z"/>
		</g>
		<g>
			<path style="fill:#FFFFFF;" d="M703.1,86.9c-5.7,0-9.5-4.1-9.5-10.2c0-6.2,3.8-10.3,9.5-10.3c2.3,0,4.1,0.5,5.7,1.5l0.1,0.1
				l-0.6,3.6l-0.3-0.2c-1.6-1.2-3.1-1.7-4.8-1.7c-3.6,0-5.7,2.6-5.7,7c0,4.3,2.2,7,5.7,7c1.7,0,3.5-0.6,5.1-1.8l0.3-0.2l0.5,3.4
				l-0.1,0.1C707.4,86.3,705.3,86.9,703.1,86.9L703.1,86.9z"/>
		</g>
		<g>
			<path style="fill:#FFFFFF;" d="M725.8,86.9c-4.7,0-9.5-3.5-9.5-10.2c0-6.7,4.8-10.3,9.5-10.3c4.7,0,9.5,3.5,9.5,10.2
				C735.3,83.4,730.5,86.9,725.8,86.9L725.8,86.9z M725.8,69.8c-3.3,0-5.6,2.8-5.6,6.9c0,4,2.4,7,5.6,7c3.3,0,5.6-2.8,5.6-6.9
				C731.4,72.7,729,69.8,725.8,69.8L725.8,69.8z"/>
		</g>
		<g>
			<path style="fill:#FFFFFF;" d="M755.4,86.6h-11.7V66.8h3.8v16.3h7.3L755.4,86.6L755.4,86.6z"/>
		</g>
		<g>
			<path style="fill:#FFFFFF;" d="M770.2,86.9c-5,0-8-3-8-8.1v-12h3.8v11.9c0,3.2,1.5,4.9,4.3,4.9c2.8,0,4.3-1.7,4.3-4.8V66.8h3.9
				v11.9C778.4,83.9,775.3,86.9,770.2,86.9L770.2,86.9z"/>
		</g>
		<g>
			<path style="fill:#FFFFFF;" d="M801.3,86.6h-3.7l-5.3-14.9l-1.1,14.9h-3.5l1.6-19.7h5.2l5.2,15.1l5.2-15.1h5.1l1.6,19.7h-3.8
				l-1.1-14.9L801.3,86.6L801.3,86.6z"/>
		</g>
		<g>
			<path style="fill:#FFFFFF;" d="M828.3,86.6h-6.5V66.8h6.4c4.2,0,6.6,1.9,6.6,5.1c0,1.9-0.8,3.3-2.5,4.2c2.2,0.8,3.3,2.3,3.3,4.6
				C835.8,84.5,833.2,86.6,828.3,86.6L828.3,86.6z M825.5,83.3h2.9c2.6,0,3.8-0.9,3.8-2.7c0-1.9-1.3-2.9-3.8-2.9h-2.9V83.3
				L825.5,83.3z M825.5,74.7h2.5c2.2,0,3.3-0.8,3.3-2.4c0-0.9-0.3-2.2-3.2-2.2h-2.6V74.7L825.5,74.7z"/>
		</g>
		<g>
			<path style="fill:#FFFFFF;" d="M849.3,86.6h-3.9V66.8h3.9V86.6L849.3,86.6z"/>
		</g>
		<g>
			<path style="fill:#FFFFFF;" d="M872.6,86.9l-1.9-5.2h-8.3l-1.8,4.8h-3.8l7.8-19.9h4.1l7.7,19.5L872.6,86.9L872.6,86.9z
				 M863.6,78.3h5.7c-0.4-1-1.8-4.9-2.9-7.7L863.6,78.3L863.6,78.3z"/>
		</g>
	</g>
	<g>
		<path style="fill:#FFFFFF;" d="M0,0v73.2c0,30.8,16.7,53,49.5,61.8C82.3,126.3,99,104,99,73.2V0H0z M49.5,131.1
			c-31-8.8-45.8-29.2-45.8-58.4v-69h91.5v69C95.3,101.9,80.5,122.3,49.5,131.1z"/>
		<g>
			<path style="fill:#FFFFFF;" d="M49.5,47.2c6.9,0,7.8,2.8,13.4,2.8c5.5,0,6.5-2.8,13.4-2.8c6.9,0,7.9,2.8,13.4,2.8v-6.4
				c-5.5,0-6.5-2.7-13.4-2.7c-6.9,0-7.9,2.8-13.4,2.7c-5.6,0-6.5-2.7-13.4-2.7c-6.9,0-7.8,2.8-13.4,2.7c-5.5,0-6.5-2.7-13.4-2.7
				c-6.9,0-7.9,2.8-13.4,2.7V50c5.5,0,6.5-2.8,13.4-2.8c6.9,0,7.9,2.8,13.4,2.8C41.7,50,42.6,47.2,49.5,47.2z"/>
			<path style="fill:#FFFFFF;" d="M49.5,51.3l3.1,33.6L62.7,58l-3.8,30.2l13.7-23.8l-8.2,29l17.2-18.7L71.1,98l18.2-13.3
				c-8.3,17.7-14.2,31.9-39.8,39.8C23.9,116.6,18,102.4,9.7,84.6L27.9,98L17.4,74.6l17.2,18.7l-8.2-29l13.7,23.8L36.3,58l10.1,26.9
				L49.5,51.3z"/>
			<g>
				<path style="fill:#FFFFFF;" d="M9.3,71.6c5.5,0,6.5-2.7,13.4-2.7c1.2,0,2.3,0.1,3.2,0.2L24,62.5c-0.4,0-0.9,0-1.3,0
					c-6.9,0-7.9,2.8-13.4,2.7V71.6L9.3,71.6z M32,71c1.1,0.4,2.4,0.6,4.1,0.6c0.1,0,0.1,0,0.1,0l-0.8-6.4c-3.5-0.1-5.1-1.4-8-2.2
					L32,71L32,71z M42.5,70.2c1-0.4,2.1-0.8,3.5-1l0.6-6.5c-2.7,0.4-4.3,1.3-6.2,1.9L42.5,70.2L42.5,70.2z"/>
				<path style="fill:#FFFFFF;" d="M89.7,71.6v-6.4c-5.5,0-6.5-2.7-13.4-2.7c-0.5,0-0.9,0-1.3,0l-1.9,6.6c0.9-0.1,2-0.2,3.2-0.2
					C83.2,68.9,84.1,71.6,89.7,71.6L89.7,71.6z M67,71l4.6-8c-2.9,0.8-4.5,2-8,2.2l-0.8,6.4c0,0,0.1,0,0.1,0
					C64.6,71.6,65.9,71.4,67,71L67,71z M56.5,70.2l2.1-5.6c-1.9-0.6-3.5-1.5-6.2-1.9l0.6,6.5C54.4,69.4,55.5,69.8,56.5,70.2
					L56.5,70.2z"/>
			</g>
			<g>
				<path style="fill:#FFFFFF;" d="M9.3,60.8c5.5,0.1,6.5-2.7,13.4-2.7c6.4,0,7.7,2.4,12.2,2.7l-0.8-6.5c-3.9-0.5-5.4-2.6-11.3-2.6
					c-6.9,0-7.9,2.8-13.4,2.7V60.8L9.3,60.8z M38.9,60.5c2.8-0.6,4.4-1.9,8.2-2.4l0.6-6.4c-5.1,0.4-6.5,2.5-11.1,2.7L38.9,60.5
					L38.9,60.5z"/>
				<path style="fill:#FFFFFF;" d="M89.7,60.8v-6.4c-5.5,0-6.5-2.7-13.4-2.7c-6,0-7.5,2.1-11.3,2.6l-0.8,6.5
					c4.5-0.3,5.8-2.7,12.2-2.7C83.2,58,84.1,60.8,89.7,60.8L89.7,60.8z M60.1,60.5l2.3-6.2c-4.6-0.1-6-2.2-11.1-2.7l0.6,6.4
					C55.6,58.6,57.3,60,60.1,60.5L60.1,60.5z"/>
			</g>
			<g>
				<path style="fill:#FFFFFF;" d="M89.7,10l-1,4.3h-0.5c-0.9-1.2-2-2.2-3.2-2.8c-1.3-0.6-2.5-0.9-3.9-0.9c-2.8,0-5.3,1.2-7.3,3.7
					c-2,2.5-3.1,5.3-3.1,8.6c0,3.1,1,6,2.9,8.4c2.1,2.6,4.6,3.9,7.6,3.9c1.2,0,2.6-0.3,4-0.9c0.9-0.4,2.2-1.1,3.7-2.1
					c0.2-0.1,0.4,0,0.8,0.1l-1,3.6c-1.3,0.6-2.7,1.1-4.2,1.3c-1.5,0.3-3.1,0.4-4.8,0.4c-3.8,0-7.1-0.9-10-2.8c-4-2.6-6-6.5-6-11.7
					c0-4.6,1.7-8.3,5.2-11.1C71.9,9.3,75.9,8,80.6,8c1.5,0,3,0.1,4.5,0.5C86.5,8.8,88,9.4,89.7,10z"/>
				<path style="fill:#FFFFFF;" d="M35,26.8c0,2.9-1.2,5.4-3.5,7.6c-2.4,2.2-5.3,3.3-8.8,3.3c-3.4,0-6.4-0.7-9.1-2.1
					c-2.9-1.5-4.3-3.4-4.3-5.6V8.5h6.5v19.2c0,2,0.6,3.7,1.9,5.1c1.3,1.4,2.9,2.1,4.8,2.1c0.4,0,0.7,0,0.8,0c1.9,0,3.7-0.6,5.3-1.8
					c1.7-1.4,2.6-2.9,2.6-4.8V8.5H35V26.8z"/>
				<path style="fill:#FFFFFF;" d="M59.1,23.9c-1.8-1.2-3.9-1.9-6.4-1.9l-0.1-0.3c2.2-0.3,4.1-1,5.8-2.3c1.7-1.2,2.6-2.6,2.6-4.2
					c0-1.8-0.8-3.3-2.5-4.6c-1.6-1.3-3.6-2-5.8-2H39v28.5h12.7c2.8,0,5.2-0.8,7.1-2.4c2-1.6,2.9-3.6,2.9-6
					C61.7,26.7,60.8,25.1,59.1,23.9z M45.3,11h2.4c0.6,0,1.3,0.1,1.8,0.2c0.8,0.2,1.5,0.6,2.2,1.1c1,0.9,1.6,2,1.6,3.3
					c0,1.3-0.4,2.6-1.3,3.6c-0.7,0.9-1.5,1.4-2.4,1.7C49.2,21,48.7,21,48.3,21h-3V11z M52.3,33.2c-0.8,0.9-1.7,1.5-2.8,1.7
					C49.1,35,48.7,35,48.2,35h-2.9V23.4h3.4c0.3,0,0.6,0,0.8,0.1c1.2,0.2,2.2,0.8,3,1.9c0.8,1.1,1.2,2.4,1.2,3.8
					C53.8,30.7,53.3,32,52.3,33.2z"/>
			</g>
		</g>
	</g>
	<g>
		<g>
			<g>
				<path style="fill:#FFFFFF;" d="M177.7,37.5c-3.4,0-5.7-2.2-5.7-5.5c0-4.5,3.5-6.8,11.7-7.7v-0.4c0-1.9-1-2.7-3.2-2.7
					c-2,0-4,0.5-6.4,1.6l-0.2,0.1l-0.7-4.2l0.1-0.1c2-0.8,4.5-1.6,7.8-1.6c5.3,0,7.7,2.1,7.7,6.7v13.5h-4.5l-0.4-2.3
					C182.2,36.6,180.1,37.5,177.7,37.5L177.7,37.5z M183.7,27.4c-5.8,0.7-6.6,2.5-6.6,4c0,1.3,0.8,2.1,2.2,2.1c1.5,0,3-0.7,4.4-2
					V27.4L183.7,27.4z"/>
			</g>
			<g>
				<path style="fill:#FFFFFF;" d="M205.4,44.6V17.3h4.4l0.4,2.4c1.8-1.9,3.7-2.8,5.8-2.8c3.6,0,7.5,2.6,7.5,9.7
					c0,7.8-4.7,10.6-8.6,10.6c-1.6,0-3-0.2-4.3-0.7v7.2L205.4,44.6L205.4,44.6z M210.5,32.3c1.1,0.5,2,0.8,3.6,0.8
					c2.6,0,4.2-2.3,4.2-6.1c0-3.4-1.3-5.4-3.6-5.4c-1.5,0-2.8,0.8-4.2,2.6V32.3L210.5,32.3z"/>
			</g>
			<g>
				<path style="fill:#FFFFFF;" d="M235.5,37.1h-5.2V8.5l5.2-0.8V37.1L235.5,37.1z"/>
			</g>
			<g>
				<path style="fill:#FFFFFF;" d="M248,37.5c-3.4,0-5.7-2.2-5.7-5.5c0-4.5,3.5-6.8,11.7-7.7v-0.4c0-1.9-1-2.7-3.2-2.7
					c-2,0-4,0.5-6.4,1.6l-0.2,0.1l-0.7-4.2l0.1-0.1c2-0.8,4.5-1.6,7.8-1.6c5.3,0,7.7,2.1,7.7,6.7v13.5h-4.5l-0.4-2.3
					C252.5,36.6,250.5,37.5,248,37.5L248,37.5z M254,27.4c-5.8,0.7-6.6,2.5-6.6,4c0,1.3,0.8,2.1,2.2,2.1c1.5,0,3-0.7,4.4-2V27.4
					L254,27.4z"/>
			</g>
			<g>
				<path style="fill:#FFFFFF;" d="M275.2,37.4c-5.7,0-9.4-4-9.4-10.1c0-6.3,3.7-10.4,9.5-10.4c2.4,0,4.4,0.5,6.2,1.7l0.1,0.1
					l-0.7,4.7l-0.2-0.2c-1.6-1.2-3.2-1.8-5-1.8c-2.8,0-4.6,2.2-4.6,5.7c0,3.6,1.8,5.8,4.9,5.8c1.8,0,3.3-0.5,4.9-1.8l0.2-0.2
					l0.7,4.5l-0.1,0.1C279.8,36.8,277.8,37.4,275.2,37.4L275.2,37.4z"/>
			</g>
			<g>
				<path style="fill:#FFFFFF;" d="M297.2,37.5c-6.1,0-9.6-3.7-9.6-10.2c0-6.2,3.6-10.3,9-10.3c5.4,0,8.6,3.8,8.6,10
					c0,0.2,0,0.5,0,0.7c0,0.2,0,0.3,0,0.5v0.2h-12.4c0.3,3.3,2,5.1,5,5.1c2.2,0,4.2-0.7,6.6-2.4l0.2-0.2l0.6,4.2l-0.1,0.1
					C302.8,36.7,300.1,37.5,297.2,37.5L297.2,37.5z M292.8,25h7.3c-0.4-2.9-1.6-4.3-3.7-4.3C294.5,20.6,293.2,22.2,292.8,25
					L292.8,25z"/>
			</g>
			<g>
				<path style="fill:#FFFFFF;" d="M327.6,37.5c-5.5,0-9.2-4.1-9.2-10.2c0-6.2,3.7-10.3,9.3-10.3c5.6,0,9.3,4.1,9.3,10.3
					C337,33.3,333.2,37.5,327.6,37.5L327.6,37.5z M327.6,21.2c-2.6,0-4.2,2.2-4.2,6c0,3.6,1.7,6,4.2,6c2.7,0,4.3-2.2,4.3-6
					C331.9,23.5,330.3,21.2,327.6,21.2L327.6,21.2z"/>
			</g>
			<g>
				<path style="fill:#FFFFFF;" d="M350.2,37.1h-5.1V21.6h-2.8v-4.3h2.8v-3.2c0-4,2.3-6.1,6.9-6.1c0.9,0,1.6,0.1,2,0.2l0.1,0
					l0.7,4.3l-0.2,0c-0.4-0.1-1.1-0.2-2-0.2c-1.6,0-2.4,0.7-2.4,2.3v2.7h3.7l0.7,4.3h-4.3V37.1L350.2,37.1z"/>
			</g>
			<g>
				<path style="fill:#FFFFFF;" d="M398.5,37.1h-5.2V24.2c0-1.8-0.7-2.7-2.2-2.7c-1.3,0-2.6,0.7-4.1,2.3v13.2h-5.2V24.2
					c0-1.8-0.7-2.7-2.2-2.7c-1.3,0-2.6,0.7-4.1,2.3v13.2h-5.2V17.3h4.4l0.4,2.6c1.6-1.5,3.6-3,6.3-3c2.5,0,4.2,1,5,3
					c2.1-2,4.2-3,6.4-3c3.6,0,5.6,2.1,5.6,6V37.1L398.5,37.1z"/>
			</g>
			<g>
				<path style="fill:#FFFFFF;" d="M412.3,37.1h-5.2V17.3h5.2V37.1L412.3,37.1z M409.7,14.4c-1.7,0-3.1-1.2-3.1-2.9
					c0-1.7,1.3-3,3.1-3c1.7,0,3,1.3,3,3C412.7,13.2,411.4,14.4,409.7,14.4L409.7,14.4z"/>
			</g>
			<g>
				<path style="fill:#FFFFFF;" d="M437.8,37.1h-5.2V24.2c0-1.2-0.4-2.7-2.3-2.7c-1.3,0-2.8,0.8-4.2,2.3v13.2h-5.2V17.3h4.4l0.4,2.6
					c1.5-1.4,3.6-3,6.3-3c3.6,0,5.7,2.2,5.7,6V37.1L437.8,37.1z"/>
			</g>
			<g>
				<path style="fill:#FFFFFF;" d="M452.4,37.5c-3.6,0-7.5-2.6-7.5-9.7c0-7.8,4.5-10.6,8.6-10.6c1.5,0,3,0.2,4.3,0.7V8.5l5.2-0.8
					v29.3h-4.5l-0.4-2.5C456.5,36.5,454.6,37.5,452.4,37.5L452.4,37.5z M454.3,21.3c-2.6,0-4.2,2.3-4.2,6.1c0,3.4,1.3,5.4,3.6,5.4
					c1.5,0,2.8-0.8,4.2-2.5v-8.2C456.8,21.6,455.9,21.3,454.3,21.3L454.3,21.3z"/>
			</g>
		</g>
	</g>
</g>
</svg>
