<svg viewBox="0 0 1253 1669" xmlns="http://www.w3.org/2000/svg"><path fill="#c5bfb9" d="M0 0h1253v1669H0z"/><g fill-opacity=".502"><path d="M1044 601l-911-45L647-16z"/><path d="M992 411l-791 78L623 65z"/><path d="M77-16l-93 1682 668 18z" fill="#fff"/><path d="M1016 1684L901-16l367 518z" fill="#feffff"/><path d="M865 219L691 747l261-91z"/><path d="M503 1682l752-4 7-1005z" fill="#fafeff"/><path d="M567 760L372 197 264 625z" fill="#130000"/><path d="M331 112l842 25L675-16z" fill="#fff"/><path d="M383 561l438 57-174-196z" fill="#ffd7af"/><path d="M287 343l665 196-407-427z"/><path d="M854 969l-120 332 167-239z" fill="#2d0000"/><path d="M605 1260l-164-144-15-125z" fill="#300"/><path d="M403 614l267 890 193-365z" fill="#cd8e68"/><path d="M671 116L253 528l642-235z"/><path d="M286 687L-16 572 228-16z" fill="#dee2d6"/><path d="M263 471l97 325-2-527zM909 731l10-396-133 290z"/><path d="M513-16l741 2 2 587z" fill="#dfe5de"/><path d="M-9 0l-7 745L578-2z" fill="#d8dcd2"/><path d="M1061 1684L898 651l370-637z" fill="#dfe0db"/><path d="M768 785L547 410l-37 501z" fill="#dca583"/><path d="M503 1227l144 93-25 294z" fill="#fff"/><path d="M527 1000l241-27-112 89z" fill="#8e2f3b"/><path d="M507 905L-16 594 8 1684z" fill="#f2f3ee"/><path d="M706 76L651-9 435 175z" fill="#eeeee5"/><path d="M878 567L373 252l130-101z" fill="#010001"/><path d="M610 409L400 514l155 227z" fill="#ad7e65"/><path d="M5 1684l-21-665 915 663z" fill="#f0eff7"/><path d="M574 1296l-168-275 165 136z" fill="#7d4822"/><path d="M795 1141l-38 207 66-124z" fill="#412116"/><path d="M364 764l-1-119 143 13z" fill="#edc9a7"/><path d="M1015 1684l-53-780-290 663z" fill="#f0eef9"/><path d="M984 1065L876 658 619 852z" fill="#f9dabd"/><path d="M446 609l359 11-131-143z" fill="#e8c6b1"/><path d="M733 623l20 111-88-84z" fill="#422013"/><path d="M753 716l183 69 8-165z" fill="#b27c5d"/><path d="M800 1181l62-178 21 94z" fill="#1e0e04"/><path d="M533 1300l-56-12-6-98z" fill="#775d67"/><path d="M702 1429l-49 35 7 71z" fill="#653324"/><path d="M943 603l176 4-180-273z" fill="#eff4ec"/><path d="M635 393l194-158 115 178z" fill="#010004"/><path d="M801 1684l444-428 23 428z" fill="#f1effb"/><path d="M810 1335l-238-54-209-609z" fill="#e3c1a0"/><path d="M285 580l159 22-132-273z" fill="#080807"/><path d="M251 549l92 133 12 164z" fill="#eac4a8"/><path d="M892 1183l-2-351 191-139z" fill="#e7f2f0"/><path d="M797 721l60-461 87 243z" fill="#0c090d"/><path d="M473 611l113 55-205-30z" fill="#1a181e"/><path d="M482 688h33l-15 68z"/><path d="M929-16l323 255L216 27z" fill="#d6d7d0"/><path d="M821 1264l-8-103 150-94z" fill="#e9eef7"/><path d="M828 306L597 107l-97 42z"/><path d="M808 676l-131-3 118-36z" fill="#e7b38d"/><path d="M309 717l-61-301-264 187z" fill="#e1e1da"/><path d="M495 1171L375 991l58 283z" fill="#fcf9f9"/><path d="M1267 1253l-8-663-329 530z" fill="#d4d8d1"/><path d="M673 419l-175 18 266 63z" fill="#7c5545"/><path d="M513 1190l-80-117 28-33z" fill="#1a0807"/><path d="M697 119l80 68-153-51z" fill="#201e22"/><path d="M1026 484L890 324l-7-251z" fill="#e3e6df"/><path d="M564 1674l100-228-25 220z" fill="#c0b2b4"/><path d="M881 591l36 160-41-75z" fill="#030008"/><path d="M324 785l178-44 12 392z" fill="#eccbb1"/><path d="M581 541l65 413 206 57z" fill="#eac3a7"/><path d="M-16 1361l24 323 265-23z" fill="#fff"/><path d="M594 1136l229-201 11 168z" fill="#e4c3a1"/><path d="M684 462l123 142-37-84z" fill="#b67f64"/><path d="M586 97L276 312 201 32z" fill="#d5d7cf"/><path d="M276 389l167-202-29 346z" fill="#050707"/><path d="M74-16L52 439l234-23z" fill="#cdccc3"/><path d="M364 745l-13-169 41 55z" fill="#aa8f70"/><path d="M797 699l-22 18-11-39z" fill="#fff0f8"/><path d="M925 623l13-133-192 153z" fill="#141013"/><path d="M431 712l47-26-33 45z" fill="#170812"/><path d="M757 1343l93-286-96 126z" fill="#87654f"/><path d="M436 1282l-61 4 2-193z" fill="#bfadad"/><path d="M622 1283l33 203-243-141z" fill="#f2f1fb"/><path d="M333 595l34 82-15 89z" fill="#201312"/><path d="M663 950l-11 117-125-58z" fill="#a2605d"/><path d="M859 80l74 235-153-114z" fill="#e6e7e1"/><path d="M473 1063l146 123-40 105z" fill="#b48662"/><path d="M476 699l14 37-38-25z" fill="#f8ffff"/><path d="M337 737v-55l-21-12z" fill="#b92200"/><path d="M-8 1259l175 112 234-282z" fill="#dcd9d9"/><path d="M755 731l18-60-61 15z" fill="#0b020c"/><path d="M841 1172l-19-5 27 41z" fill="#3f3440"/><path d="M830 588L626 367l311 35z" fill="#131013"/><path d="M763 145l-44-21-45 6z" fill="#191a18"/><path d="M373 851l-30-34 2-73z" fill="#bd704a"/><path d="M461 647l-87 13-8 206z" fill="#dac0a8"/><path d="M745 1345l-75 148-48-184z" fill="#b58c71"/><path d="M890 291l-482-47 302-97z"/><path d="M701 904h-50l26-15z" fill="#62291a"/><path d="M796 678l118 153-36-147z" fill="#d1b699"/><path d="M226 1167L2 285l-17 980z" fill="#e9eae2"/><path d="M691 742l40-68-72-28z" fill="#af8d74"/><path d="M31 642l279-288-30-209z" fill="#d9d9d1"/><path d="M417 717l78 39 69-9z" fill="#8c6664"/><path d="M636 583l-215-27 37 64z" fill="#bb967c"/><path d="M939 738l-21-105-23 25z" fill="#fcd7b6"/><path d="M1226 1105l42-577-343 52z" fill="#e2e4df"/><path d="M433 85L958-16 674 122z" fill="#dadad3"/><path d="M802 1063l65-75 35 52z" fill="#625042"/><path d="M634 413l-92-14-136 114z" fill="#4c362b"/><path d="M809 1129l7 130-35-10z" fill="#4c3027"/><path d="M785 589l-53 41-123-129z" fill="#e6cdbe"/><path d="M772 709l-93 44 129-10z" fill="#c49e94"/><path d="M507 1184l70 129-67-40z" fill="#faf8fe"/><path d="M853 792l-171-36 116 187z" fill="#f1dcce"/><path d="M418 1058l11-57 16 119z" fill="#b3937b"/><path d="M884 898l-92 259-7-118z" fill="#c8a587"/><path d="M521 1311l-22-125-38 35z" fill="#a08d94"/><path d="M1015 1089l14-586-169 475z" fill="#e5e8e4"/><path d="M578 1161L396 968l245 114z" fill="#e2ccb9"/><path d="M785 622l-86 15 1 25z" fill="#271d22"/><path d="M436 996L-16 481l350 777z" fill="#e1e2db"/><path d="M587 913l-9-17 32 11z" fill="#420f0f"/><path d="M550 815l10-114 205 191z" fill="#d1a68c"/><path d="M588 670l-37-40-130 68z" fill="#977865"/><path d="M1252 1245l-366-160 382 45z" fill="#cccdcb"/><path d="M275 579l-7-87 22 57z" fill="#53534c"/><path d="M601 1009l68 6 58-29z" fill="#761b27"/><path d="M363 1493l-81-345-35 354z" fill="#f7f7fa"/><path d="M411 541l268-90-150-12z" fill="#9f765d"/><path d="M417 597l148 48-58 16z" fill="#3c3335"/><path d="M737 137l-56 6 115 24z" fill="#c8cac0"/><path d="M489 742l30-14-26-26z"/><path d="M543 848l-22 38 37 38z" fill="#926453"/><path d="M833 1022l58 56-28 36z" fill="#231310"/><path d="M317 612l-17 31 28 17z" fill="#999a90"/><path d="M771 177l-328 16 176-75z" fill="#0a090c"/><path d="M464 1070l86 94-18 66z" fill="#714838"/><path d="M884 900l-11-199-79 30z" fill="#e3c7ae"/><path d="M342 590l93 14-12-133z" fill="#4d3a32"/><path d="M1006 231l-72 297 223 185z" fill="#e1e3de"/><path d="M653 1096l242-232-171 343z" fill="#dec3a6"/><path d="M887 294l19 39-40-46z" fill="#434341"/><path d="M534 144l47-21-27 4z" fill="#b5b5af"/><path d="M688 1460l20 154 37-256z" fill="#f3f2fb"/><path d="M880 649l-13 25 2-69z" fill="#9e846f"/><path d="M675 547l-125 68 93 202z" fill="#dec6b4"/><path d="M290 572l20-63-5 129z" fill="#040709"/><path d="M545 638l111-183-211 153z" fill="#c19a84"/><path d="M554 988l-84 39-81-246z" fill="#e9d8c9"/><path d="M550 739l-12-37 21 27z" fill="#29090a"/><path d="M933 795l-60 22 76-201z" fill="#cc9679"/><path d="M534 701l-56 6 26-20z"/><path d="M788 1097l-123 281-102-163z" fill="#d6b791"/><path d="M607 850l-64 49 144-8z" fill="#e9c2b9"/><path d="M782 725l42-20-19-67z" fill="#7b544a"/><path d="M754 190l161 165-111 233z" fill="#0c0c0e"/><path d="M319 331l146-223L7 299z" fill="#d5d4cd"/><path d="M268 440l-52 36 51 8z" fill="#c4c2b6"/><path d="M892 537l51 41-25-127z" fill="#040505"/><path d="M921 1162l-1-105-106 113z" fill="#e9e7eb"/><path d="M317 961L-16 637l362 83z" fill="#e4e4dd"/><path d="M744 690l17 6-11 12z" fill="#b9bdd1"/><path d="M678 1479l-28-43 12 94z" fill="#7f5548"/><path d="M764 1149v197l-50-106z" fill="#be9979"/><path d="M431 1684l220-218-54 209z" fill="#e3e1e5"/><path d="M443 1344l-15-205 55 158z" fill="#fbfcff"/><path d="M284 539l3 119-24-45z" fill="#d4dad1"/><path d="M921 735l-24 33 7-81z" fill="#6a4138"/><path d="M546 722l-24 10 8-25z" fill="#dfe1ed"/><path d="M558 852L360 696l220 94z" fill="#d7beae"/><path d="M84 265L-16-16l374 38z" fill="#cacabe"/><path d="M579 1023l169-17-92 58z" fill="#c57875"/><path d="M391 661l-4-32 74-14z" fill="#3d3333"/><path d="M594 349l127 83-219-11z" fill="#201b1b"/><path d="M1268 354L1035-16 734 156z" fill="#d9dad4"/><path d="M492 465l-27-285-188 324z" fill="#040405"/><path d="M787 416L631 167l94-22z" fill="#0c0c0e"/><path d="M509 705v16l13-10z" fill="#e1f2ff"/><path d="M579 656l-103 25 91 23z" fill="#c19d7f"/><path d="M956 1127l-25 557 337-427z" fill="#e3e0e9"/><path d="M236 456l56-72 6 33z" fill="#5a5851"/><path d="M478 1064l-24 44-20-94z" fill="#382218"/><path d="M768 673l50 26-23-1z" fill="#0d0000"/><path d="M769 984l-148-19-99 55z" fill="#9f7262"/><path d="M855 696l15-104-39-4z" fill="#0e090c"/><path d="M806 599l-57-227 190 241z" fill="#1c1a1d"/><path d="M923 611l27-44-22-8z" fill="#6e6e68"/><path d="M419 267l-108 77 66-93z" fill="#141616"/><path d="M361 1463l1-292 153 463z" fill="#dfdbdc"/><path d="M722 687l37-15-25 47z"/><path d="M653 979l-180-61 245-20z" fill="#d2a995"/><path d="M936 698l5-90-23 9z" fill="#c76d4e"/><path d="M508 144l-30 45 86-68z" fill="#262624"/><path d="M830 1243l-18-66 18-20z" fill="#edf1f7"/><path d="M476 166L765-16 202 13z" fill="#d3d4cd"/><path d="M438 193l-27 1-31 59z" fill="#b2b4a9"/><path d="M924 703l175 350-5-495z" fill="#e4e7e1"/><path d="M1090 118l160-134 15 295z" fill="#cbcfc8"/><path d="M908 1043l-17-36-4 91z" fill="#bfaca4"/><path d="M818 1245l-26 35 57 49z" fill="#d7cdcd"/><path d="M298 624l59 225-242-400z" fill="#dfe1da"/><path d="M899 394L688 291l132 11z" fill="#1e1d24"/><path d="M720 466l65 64 21 92z" fill="#705042"/><path d="M636 454l116 62 50 100z" fill="#ba9480"/><path d="M358 741l71-95 42 8z" fill="#d6c3b6"/><path d="M494 725l-25 7-4-31z" fill="#e1ebfc"/><path d="M380 646l-29-47 40 28z" fill="#c5aa8c"/><path d="M426 1061l72 119-55-50z" fill="#d5bdac"/><path d="M-16 286l294 109L61 713z" fill="#dbdad3"/><path d="M483 751l89-21 63 135z" fill="#c89f87"/><path d="M767 718l27-17-27-18z" fill="#ddcfd2"/><path d="M897 307l88 175-75-364z" fill="#e1e2dc"/><path d="M391 1114l13 111-23-43z" fill="#b19c9b"/><path d="M877 976l118 326 25-295z" fill="#d9dad9"/><path d="M651 1435l-34-141-94 34z" fill="#f5f4f9"/><path d="M428 206l-11-10-14 53z" fill="#9b9b91"/><path d="M386 1103l-46 64-157 21z" fill="#d0caca"/><path d="M746 130l-37-14-38 10z" fill="#a9a69e"/><path d="M933 485l19-104-25 44z" fill="#babcb3"/><path d="M775 202l-32-87 82 114z" fill="#bfbfb5"/><path d="M407 593l27 26-30-3z" fill="#b8987d"/><path d="M95 1075l-111 256L3 690z" fill="#efefe8"/><path d="M445 1109l-57 8 48 156z" fill="#fafbff"/><path d="M482 746l-122 32-2-63z" fill="#dcbfa3"/><path d="M743 379l78-51 76 150z" fill="#010202"/><path d="M491 742l-64-14 1-26z" fill="#836057"/><path d="M716 39l131 216 375 134z" fill="#ddded8"/><path d="M760 684l10 11-9 19z"/><path d="M1268 805L900 15l368 305z" fill="#dbdcd6"/><path d="M363 795l-7-49-11 15z" fill="#633625"/><path d="M858 1060l1 54-57 67z" fill="#4d3328"/><path d="M786 1300l-143 101 17 84z" fill="#b38c76"/><path d="M821 1201h-36l24 53z" fill="#50332a"/><path d="M435 723l53-37-41 14z" fill="#2e1e1c"/><path d="M892 330l-1-14-14-2z" fill="#b8b7b0"/><path d="M272 554l9-28-7-18z"/><path d="M579 1473l-62-133 132 125z" fill="#dcd8d7"/><path d="M952 827l-8-485 172 226z" fill="#e3e5e0"/><path d="M622 1684l43-159-44 49z" fill="#c3b6b8"/><path d="M702 1564l216-188-203 308z" fill="#e2dde2"/><path d="M657 644l1 32 64-53z" fill="#9b8380"/><path d="M539 677l-19-53 61 21z" fill="#7b6663"/><path d="M673 599l-141 23 101-143z" fill="#d6b399"/><path d="M938 487l10 12-16 29z" fill="#76766c"/><path d="M861 654l-64-138 22 160z" fill="#0f0a0a"/><path d="M553 129l8-11 18-4z" fill="#16170e"/><path d="M679 1626l-10-116-41 174z" fill="#f8f7fe"/><path d="M937 407l-9-33-13 78z" fill="#3f4038"/><path d="M508 143l-39 40 27-59z" fill="#d4d3cb"/><path d="M711 1107l-141 40 3 153z" fill="#c9a98b"/><path d="M895 660l32-39 15 148z" fill="#dab49a"/><path d="M541 1000l20 15 49-9z" fill="#6b3b43"/><path d="M266 1287l-150 222-132-248z" fill="#e7e5e9"/><path d="M799 216l-10 21 30-7z" fill="#131012"/><path d="M710 129l-17 20 35-19z" fill="#111011"/><path d="M750 729l95-61-46 55z" fill="#896861"/><path d="M688 730l52-79-33 6z" fill="#9e785e"/><path d="M917 358l12-3-2 29z" fill="#c4c6b7"/><path d="M549-16l560 72-468 68z" fill="#d7d8d2"/><path d="M282 497l-21 6 11-82z" fill="#575550"/><path d="M897 1302l-73-128-10 75z" fill="#f0eeef"/><path d="M606 904l-2 9-23-17z" fill="#481a16"/><path d="M344 485l-16 31 90 76z" fill="#0d0c0d"/><path d="M869 943l-6-187 46 16z" fill="#d2b9a0"/><path d="M436 681l-80 1 81 61z" fill="#caad98"/><path d="M743 575l-136 68 175-34z" fill="#e2cfc6"/><path d="M928 1347l-109 188 107-399z" fill="#dedbe1"/><path d="M675 436l54 49-141-49z" fill="#7b5f52"/><path d="M751 656l42 6 2-23z" fill="#d0bba9"/><path d="M321 339l31-61 189 66z" fill="#161516"/><path d="M435 1008l-14 30 32-7z" fill="#936f56"/><path d="M1017 1679l-298-18 446-401z" fill="#e9e7eb"/><path d="M368 712l-36-50-3-61z" fill="#231e20"/><path d="M751 652l77-48-148 42z" fill="#433739"/><path d="M532 292l173-28-86-12z" fill="#1c1b1f"/><path d="M1 1644l-5 40 12-17z" fill="#847f89"/><path d="M474 1282l12 30 64-17z" fill="#c9bcc0"/><path d="M668 743l-42-136-54 132z" fill="#e4ccb7"/><path d="M175 1585L4 1413l16 271z" fill="#fcfcff"/><path d="M485 492l-40-30 84-18z" fill="#503e33"/><path d="M833 679l47-6 24 74z" fill="#ae987d"/><path d="M687 915l-163 100-1-71z" fill="#d7b8a5"/><path d="M660 1169l12-123-75 4z" fill="#ceaf96"/><path d="M539 329l217 50-80-110z"/><path d="M737 720l26-10-44-6z" fill="#070000"/><path d="M756 1548l-32-157 110-147z" fill="#e5e3e7"/><path d="M766 1336l24-51-44-83z" fill="#af8570"/><path d="M373 530l29 11 19 49z" fill="#6a5348"/><path d="M509 737l16-17-34 9z" fill="#0f0005"/><path d="M899 1068l-43 59 31-18z" fill="#cdbdb4"/><path d="M845 1182v24l-13-40z" fill="#574548"/><path d="M900 482l-6-86-50-67z" fill="#242329"/><path d="M697 967l25-136 132 164z" fill="#e5caae"/><path d="M769 664l29 15-50-10z" fill="#dcbc9e"/><path d="M374 548l-42 72-49-54z" fill="#17161a"/><path d="M872 628l24 16v63z" fill="#1d1a1d"/><path d="M309 358l-186 73 179-169z" fill="#d7d8cf"/><path d="M530 626l1-162-93 136z" fill="#b48e76"/><path d="M550 727l-35 20-47-10z" fill="#885f55"/><path d="M613 796l-7 52-90 37z" fill="#b98b78"/><path d="M532 132l-130-19 269-44z" fill="#dadad3"/><path d="M342 688l5 60-16-6z" fill="#facaa5"/><path d="M477 1146l-4-77 59 141z" fill="#603e2e"/><path d="M468 1206l10 76 29 11z" fill="#8f8186"/><path d="M-16 706l451 396-57-245z" fill="#e7e6e1"/><path d="M687 892l-20 2 29 19z" fill="#704134"/><path d="M629 459l70 33-210 73z" fill="#c49c84"/><path d="M691 1054l36-65 39-4z" fill="#c0947d"/><path d="M405 583l28 11 11 22z" fill="#0a0202"/><path d="M512 654l22 35-95-3z" fill="#ac8062"/><path d="M821 1155l11-127 22 38z" fill="#775641"/><path d="M903 456l-6-124 28 49z" fill="#070805"/><path d="M523 697l-4 31 10-16z" fill="#0d0a24"/><path d="M724 900l-38 19 2-132z" fill="#d3ab91"/><path d="M500 66L379 250 334 91z" fill="#d5d5cd"/><path d="M846 1137l-27 22 37-62z" fill="#3d2620"/><path d="M710 670l-61 3 37 50z" fill="#d3b08e"/><path d="M810 1141l-52 31 76-157z" fill="#b59173"/><path d="M276 383l9-7 1 22z" fill="#8f8a84"/><path d="M232 479l9-26-8 9z" fill="#4f4f46"/><path d="M402 445l-73 88 194-99z" fill="#1a1717"/><path d="M1167 1007L896 831l-27 154z" fill="#e3e6e2"/><path d="M861 430l23 107 51-79z" fill="#131417"/><path d="M651 1577l58-160 7 181z" fill="#f0eff4"/><path d="M925 668l13-37-3 51z" fill="#9f4636"/><path d="M880 296l21 26 27-4z" fill="#dfdfdb"/><path d="M714 152l3-5 15 3z"/><path d="M394 650l-42-34-11 11z" fill="#53443d"/><path d="M392 642l23-54-48-4z" fill="#6b5344"/><path d="M590 410l87 23-165 1z" fill="#4a382f"/><path d="M930 603l-33 39 19-9z" fill="#794e38"/><path d="M466 801l12-59-45 15z" fill="#dfd3ca"/><path d="M946 497l-11 45 18 32z" fill="#d1d3ca"/><path d="M778 585l-77-84-146 104z" fill="#d9bba4"/><path d="M809 596l-27 30-20-8z" fill="#8a7a7d"/><path d="M519 1199l-57-27 24-17z" fill="#e4d4d0"/><path d="M272 427l-8-7 18 3z" fill="#b8b8aa"/><path d="M838 672l-15 15-55-25z" fill="#6a4837"/><path d="M305 590l72 97-48-32z" fill="#332f31"/><path d="M891 306l-1-16-20-13z" fill="#363531"/><path d="M440 196l71-11-127 90z" fill="#141313"/><path d="M250 1284l-152-64 101-41z" fill="#ddd8d7"/><path d="M534 1295l-30 2-21-103z" fill="#baa9a9"/><path d="M272 562l8 6-2-29z" fill="#1a1713"/><path d="M392 266l-19-4 40-40z" fill="#232423"/><path d="M837 252l-34 19 80 5z" fill="#0d0c0b"/><path d="M514 1117l29 132 20-70z" fill="#a1745a"/><path d="M438 1077l25-18 1 62z" fill="#211111"/><path d="M884 1242l-49-77 97-37z" fill="#eff0f6"/><path d="M284 405l6-37 44-6z" fill="#2e2d2b"/><path d="M642 123l-43-16 16 19z" fill="#6d6c64"/><path d="M386 322l155-178 63 104z" fill="#010101"/><path d="M240 456l23 11-10 52z" fill="#deded4"/><path d="M763 725l-83 3 38 28z" fill="#bf9989"/><path d="M411 526l20 46 70-98z" fill="#93715a"/><path d="M318 663l19 58v-34z" fill="#9f3521"/><path d="M631 99l-41 18 59-9z" fill="#d6d4cc"/><path d="M360 271l-4-31-28 63z" fill="#adaea1"/><path d="M278 553l5-37 5 39z" fill="#918e88"/><path d="M438 608l15 41 57-6z" fill="#2f2829"/><path d="M761 144l8 8-19-8z" fill="#585a52"/><path d="M935 440l-22-6-9 7z" fill="#050705"/><path d="M845 1003h40v84z" fill="#675347"/><path d="M309 335l11-17-2 28z" fill="#6b6b60"/><path d="M771 1237l25-106 37 8z" fill="#755646"/><path d="M564 1258l107 83-31-103z" fill="#debd9e"/><path d="M892 1004l8 34-40-57z" fill="#b0acad"/><path d="M339 777l18 44v-23z" fill="#bd6647"/><path d="M387 700l-26-4-1-21z" fill="#d2ba9c"/><path d="M416 615l-39 38 80-9z" fill="#504644"/><path d="M279 443l-28 23v-30z" fill="#7c7b70"/><path d="M1227 939l-270 157 311 104z" fill="#dadcd5"/><path d="M3 160L-6-16 172 0z" fill="#c7c8ba"/><path d="M263 429l-71 45 85-100z" fill="#cfcfc5"/><path d="M690 437l58 36 29 62z" fill="#4c382f"/><path d="M748 690l8 18 3-17z" fill="#9697a6"/><path d="M741 186l-54-44 80 34z" fill="#2a282c"/><path d="M488 715l25 13-7-25z"/><path d="M859 917l28-28-30 98z" fill="#c1aa95"/><path d="M417 650l-27 50 99-33z" fill="#d4bdae"/><path d="M657 953l-16-76 95 106z" fill="#dec0a9"/><path d="M935 690l10-76 6 45z" fill="#e6b594"/><path d="M358 1289l-158-94 96-31z" fill="#edebf0"/><path d="M562 1028l71-70-63 28z" fill="#b78c7f"/><path d="M550 880l13 32 39-40z" fill="#e5ccbe"/><path d="M400 660l-4 22-32-53z" fill="#a48e7e"/><path d="M299 375l6-20 7-1z" fill="#a6a196"/><path d="M586 1603l62-157 13 85z" fill="#d7cfd3"/><path d="M461 727l26 8v-27z" fill="#d2d6e2"/><path d="M830 315l-52-116-110-38z" fill="#050504"/><path d="M486 1032l38 89-78-98z" fill="#d8b89d"/><path d="M573 899l49 18-44 3z" fill="#a77c70"/><path d="M681 794l151-69 48 36z" fill="#e6cdbc"/><path d="M941 484l29-89-39 17z" fill="#dadcd5"/><path d="M571 771l-141 25 131 59z" fill="#d8b69f"/><path d="M1228 1423l-18 261-286-44z" fill="#edecf1"/><path d="M877 562l-7-100-38-25z"/><path d="M679 122l45 4-11 14z" fill="#3a3a38"/><path d="M504 148l41-6-63 28z" fill="#31312f"/><path d="M193 622L-16 371l258 63z" fill="#dbdbd2"/><path d="M795 206l44 43-47-86z" fill="#d6d7cf"/><path d="M825 1284l-3 17 24 21z" fill="#a9a6af"/><path d="M484 328l-193 73 214 18z" fill="#000100"/><path d="M370 841l60 167 108 13z" fill="#e3cfb9"/><path d="M425 715l-4-19 67-16z" fill="#b79882"/><path d="M434 1258l-64-99-8 175z" fill="#d5caca"/><path d="M397 1034l79 166-40 74z" fill="#f5f4f7"/><path d="M931 484l-2-34 17 48z" fill="#8c8c82"/><path d="M374 586l10 31 5-12z" fill="#a48f78"/><path d="M944 563l-4-12-15 23z" fill="#3a3535"/><path d="M931 1088l95 71 115 12z" fill="#c9c7cf"/><path d="M271 471l108 24-58 56z" fill="#060706"/><path d="M680 1491l-11-30 27-16z" fill="#a07a6a"/><path d="M510 1207l2 60 82 49z" fill="#efeeef"/><path d="M768 176l-14 9 32 1z" fill="#808077"/><path d="M1216 1388l-320-235 372 91z" fill="#dfdee5"/><path d="M754 720l16-14 6 9z" fill="#dacfe1"/><path d="M249 440l40-12 10 14z" fill="#252521"/><path d="M265 521l14-40 4 14z" fill="#6c6864"/><path d="M648 835l60 48-73-8z" fill="#e9cecb"/><path d="M451 1055l-11 27-12-52z" fill="#5f4b44"/><path d="M841 974l-19 71 39-67z" fill="#caad99"/><path d="M269 508l-20 38 17-76z" fill="#aaa79b"/><path d="M895 830l40-34 7-57z" fill="#dfb8a1"/><path d="M579 742l-12-39-45-16z" fill="#b8987b"/><path d="M1037-16L773 132l-219-29z" fill="#d8d9d2"/><path d="M626 1180l-79-53 15 153z" fill="#c59c7a"/><path d="M866 674l6-52 11 72z" fill="#8e7a67"/><path d="M423 578l-32-55 24 22z" fill="#18141a"/><path d="M607 1661l38-58-18 81z" fill="#bfb1b6"/><path d="M899 1296l-89-39 48-71z" fill="#edeef2"/><path d="M738 141l-6 16 63 12z" fill="#e0e1d9"/><path d="M726 686l23-14 32 6z" fill="#190b07"/><path d="M875 278l-3-16 22 31z" fill="#bfbdb6"/><path d="M13 1256l8 8 17-16z" fill="#afafaa"/><path d="M639 1374l41-144 94 68z" fill="#ceab92"/><path d="M428 207l17-32 2 15z" fill="#bfbfb3"/><path d="M928 403l13 1-21 6z" fill="#85827d"/><path d="M347 834l73-173-25 218z" fill="#dfc5ad"/><path d="M372 551l23 23 3 56z" fill="#53443d"/><path d="M421 1027l2 38 20 26z" fill="#ba9f8a"/><path d="M352 627l8 25 15 9z" fill="#cdb9a1"/><path d="M928 583l47 72 15-41z" fill="#e5e7e1"/><path d="M385 819l103 171-50-176z" fill="#e9d9cb"/><path d="M790 618l20 32-66-32z" fill="#594d4e"/><path d="M650 1453l-85-37 73-56z" fill="#eae8eb"/><path d="M289 414l61 88-64 65z" fill="#0a0a09"/><path d="M880 1087l-23-58-29 5z" fill="#2a1f21"/><path d="M512 738l-31-33 15-18z" fill="#1a0609"/><path d="M559 757l84 201-17-224z" fill="#d3a58e"/><path d="M273 289l64-305-353 259z" fill="#d1d1c9"/><path d="M544 467l-97 49 48 83z" fill="#ac846b"/><path d="M473 712l-15-6 28-12z" fill="#b9aaac"/><path d="M498 920l-10-168 69 80z" fill="#cfac93"/><path d="M288 1655l330-153-26 182z" fill="#e7e5e9"/><path d="M533 923l-20-48 78 58z" fill="#be8f79"/><path d="M506 761l14-35 39 32z" fill="#b08e7e"/><path d="M797 639l32 66-40-26z" fill="#9e7c68"/><path d="M878 992l13-153 91-90z" fill="#e9ebe7"/><path d="M495 613l-21 10-37-24z" fill="#7f6e6c"/><path d="M576 690l-25-68 32 14z" fill="#bb9d8e"/><path d="M510 1101l107 58 36-70z" fill="#dac4b2"/><path d="M774 482l16-189-59-31z" fill="#17171a"/><path d="M933 708l-29-23 4-48z" fill="#e4caae"/><path d="M777 563l-23-62-48-38z" fill="#785a4b"/><path d="M320 622l-15 36 3-58z" fill="#6b706b"/><path d="M265 422l29-4-24-5z" fill="#242321"/><path d="M-16 1560l146 124-126-28z" fill="#fcfdff"/><path d="M907 328l4 13-15-21z" fill="#3f3e36"/><path d="M839 1318l-40-52-29 66z" fill="#e4dedf"/><path d="M555 624l105-127-176 117z" fill="#cda990"/><path d="M739 991l-9 149 136-208z" fill="#dec2a6"/><path d="M941 504l-20-31-34 20z" fill="#0b0b0b"/><path d="M795 683l-24-5 38 24z" fill="#1a0805"/><path d="M309 1133l11 101 35-68z" fill="#d8cfd0"/><path d="M786 688l-12 23-10-31z" fill="#cac4c5"/><path d="M-16 781l365 51L69 534z" fill="#e3e3dd"/><path d="M929 577l-37 78-17-150z" fill="#141316"/><path d="M704 986l-17 19 59-22z" fill="#7d4243"/><path d="M568 127l56-9-57 93z" fill="#0f0e11"/><path d="M581 1002h-44l15 8z" fill="#5c3934"/><path d="M371 629l-19-44-3 17z" fill="#a59077"/><path d="M897 649l37-36-7 57z" fill="#cca48a"/><path d="M612 1018l48-14-83 1z" fill="#7f3635"/><path d="M628 1059l67-14 56-54z" fill="#b3806f"/><path d="M882 671l25 69-3-52z" fill="#281f21"/><path d="M711 684l-24 37 45 5z" fill="#917171"/><path d="M520 694l4 13-33-20z"/><path d="M321 496l64 103-19-76z" fill="#1d1b1c"/><path d="M754 727l49 15-82 35z" fill="#dabfac"/><path d="M318 687l20 26-4 24z" fill="#da865d"/><path d="M695 1477l3-42 80-54z" fill="#e0dce0"/><path d="M674 146l13-5 20 8z" fill="#535251"/><path d="M338 640l31 20-33-37z" fill="#1d1a1e"/><path d="M601 963l-44-23 129-69z" fill="#caa392"/><path d="M425 589l-15-27-1 16z" fill="#8a7469"/><path d="M336 778l31 21-30-38z" fill="#e7c3a6"/><path d="M423 1075l18 66 31 13z" fill="#dfd2d0"/><path d="M1259 156l9-160-150-12z" fill="#cacbc4"/><path d="M723 992l-86 23 11 29z" fill="#b54f5f"/><path d="M522 1011l79 7 12 36z" fill="#be8e88"/><path d="M918 746l10-20-23-38z" fill="#bb8067"/><path d="M883 337l29 10 20 59z" fill="#201e1c"/><path d="M680 642l58 12-68 14z" fill="#72615e"/><path d="M900 319l-29-14-7-20z" fill="#3c3c3a"/></g></svg>