<svg version="1.1" width="100%" height="100%" viewBox="0 0 1253 1669"
  xmlns="http://www.w3.org/2000/svg">
  <rect x="0" y="0" width="1253" height="1669" fill="#c5bfb9" />
  <g transform="scale(1, 1)">
    <path d="M 1044 601 L 133 556 L 647 -16 Z" fill="#000000" fill-opacity="0.501961" />
    <path d="M 992 411 L 201 489 L 623 65 Z" fill="#000000" fill-opacity="0.501961" />
    <path d="M 77 -16 L -16 1666 L 652 1684 Z" fill="#ffffff" fill-opacity="0.501961" />
    <path d="M 1016 1684 L 901 -16 L 1268 502 Z" fill="#feffff" fill-opacity="0.501961" />
    <path d="M 865 219 L 691 747 L 952 656 Z" fill="#000000" fill-opacity="0.501961" />
    <path d="M 503 1682 L 1255 1678 L 1262 673 Z" fill="#fafeff" fill-opacity="0.501961" />
    <path d="M 567 760 L 372 197 L 264 625 Z" fill="#130000" fill-opacity="0.501961" />
    <path d="M 331 112 L 1173 137 L 675 -16 Z" fill="#ffffff" fill-opacity="0.501961" />
    <path d="M 383 561 L 821 618 L 647 422 Z" fill="#ffd7af" fill-opacity="0.501961" />
    <path d="M 287 343 L 952 539 L 545 112 Z" fill="#000000" fill-opacity="0.501961" />
    <path d="M 854 969 L 734 1301 L 901 1062 Z" fill="#2d0000" fill-opacity="0.501961" />
    <path d="M 605 1260 L 441 1116 L 426 991 Z" fill="#330000" fill-opacity="0.501961" />
    <path d="M 403 614 L 670 1504 L 863 1139 Z" fill="#cd8e68" fill-opacity="0.501961" />
    <path d="M 671 116 L 253 528 L 895 293 Z" fill="#000000" fill-opacity="0.501961" />
    <path d="M 286 687 L -16 572 L 228 -16 Z" fill="#dee2d6" fill-opacity="0.501961" />
    <path d="M 263 471 L 360 796 L 358 269 Z" fill="#000000" fill-opacity="0.501961" />
    <path d="M 909 731 L 919 335 L 786 625 Z" fill="#000000" fill-opacity="0.501961" />
    <path d="M 513 -16 L 1254 -14 L 1256 573 Z" fill="#dfe5de" fill-opacity="0.501961" />
    <path d="M -9 0 L -16 745 L 578 -2 Z" fill="#d8dcd2" fill-opacity="0.501961" />
    <path d="M 1061 1684 L 898 651 L 1268 14 Z" fill="#dfe0db" fill-opacity="0.501961" />
    <path d="M 768 785 L 547 410 L 510 911 Z" fill="#dca583" fill-opacity="0.501961" />
    <path d="M 503 1227 L 647 1320 L 622 1614 Z" fill="#ffffff" fill-opacity="0.501961" />
    <path d="M 527 1000 L 768 973 L 656 1062 Z" fill="#8e2f3b" fill-opacity="0.501961" />
    <path d="M 507 905 L -16 594 L 8 1684 Z" fill="#f2f3ee" fill-opacity="0.501961" />
    <path d="M 706 76 L 651 -9 L 435 175 Z" fill="#eeeee5" fill-opacity="0.501961" />
    <path d="M 878 567 L 373 252 L 503 151 Z" fill="#010001" fill-opacity="0.501961" />
    <path d="M 610 409 L 400 514 L 555 741 Z" fill="#ad7e65" fill-opacity="0.501961" />
    <path d="M 5 1684 L -16 1019 L 899 1682 Z" fill="#f0eff7" fill-opacity="0.501961" />
    <path d="M 574 1296 L 406 1021 L 571 1157 Z" fill="#7d4822" fill-opacity="0.501961" />
    <path d="M 795 1141 L 757 1348 L 823 1224 Z" fill="#412116" fill-opacity="0.501961" />
    <path d="M 364 764 L 363 645 L 506 658 Z" fill="#edc9a7" fill-opacity="0.501961" />
    <path d="M 1015 1684 L 962 904 L 672 1567 Z" fill="#f0eef9" fill-opacity="0.501961" />
    <path d="M 984 1065 L 876 658 L 619 852 Z" fill="#f9dabd" fill-opacity="0.501961" />
    <path d="M 446 609 L 805 620 L 674 477 Z" fill="#e8c6b1" fill-opacity="0.501961" />
    <path d="M 733 623 L 753 734 L 665 650 Z" fill="#422013" fill-opacity="0.501961" />
    <path d="M 753 716 L 936 785 L 944 620 Z" fill="#b27c5d" fill-opacity="0.501961" />
    <path d="M 800 1181 L 862 1003 L 883 1097 Z" fill="#1e0e04" fill-opacity="0.501961" />
    <path d="M 533 1300 L 477 1288 L 471 1190 Z" fill="#775d67" fill-opacity="0.501961" />
    <path d="M 702 1429 L 653 1464 L 660 1535 Z" fill="#653324" fill-opacity="0.501961" />
    <path d="M 943 603 L 1119 607 L 939 334 Z" fill="#eff4ec" fill-opacity="0.501961" />
    <path d="M 635 393 L 829 235 L 944 413 Z" fill="#010004" fill-opacity="0.501961" />
    <path d="M 801 1684 L 1245 1256 L 1268 1684 Z" fill="#f1effb" fill-opacity="0.501961" />
    <path d="M 810 1335 L 572 1281 L 363 672 Z" fill="#e3c1a0" fill-opacity="0.501961" />
    <path d="M 285 580 L 444 602 L 312 329 Z" fill="#080807" fill-opacity="0.501961" />
    <path d="M 251 549 L 343 682 L 355 846 Z" fill="#eac4a8" fill-opacity="0.501961" />
    <path d="M 892 1183 L 890 832 L 1081 693 Z" fill="#e7f2f0" fill-opacity="0.501961" />
    <path d="M 797 721 L 857 260 L 944 503 Z" fill="#0c090d" fill-opacity="0.501961" />
    <path d="M 473 611 L 586 666 L 381 636 Z" fill="#1a181e" fill-opacity="0.501961" />
    <path d="M 482 688 L 515 688 L 500 756 Z" fill="#000000" fill-opacity="0.501961" />
    <path d="M 929 -16 L 1252 239 L 216 27 Z" fill="#d6d7d0" fill-opacity="0.501961" />
    <path d="M 821 1264 L 813 1161 L 963 1067 Z" fill="#e9eef7" fill-opacity="0.501961" />
    <path d="M 828 306 L 597 107 L 500 149 Z" fill="#000000" fill-opacity="0.501961" />
    <path d="M 808 676 L 677 673 L 795 637 Z" fill="#e7b38d" fill-opacity="0.501961" />
    <path d="M 309 717 L 248 416 L -16 603 Z" fill="#e1e1da" fill-opacity="0.501961" />
    <path d="M 495 1171 L 375 991 L 433 1274 Z" fill="#fcf9f9" fill-opacity="0.501961" />
    <path d="M 1267 1253 L 1259 590 L 930 1120 Z" fill="#d4d8d1" fill-opacity="0.501961" />
    <path d="M 673 419 L 498 437 L 764 500 Z" fill="#7c5545" fill-opacity="0.501961" />
    <path d="M 513 1190 L 433 1073 L 461 1040 Z" fill="#1a0807" fill-opacity="0.501961" />
    <path d="M 697 119 L 777 187 L 624 136 Z" fill="#201e22" fill-opacity="0.501961" />
    <path d="M 1026 484 L 890 324 L 883 73 Z" fill="#e3e6df" fill-opacity="0.501961" />
    <path d="M 564 1674 L 664 1446 L 639 1666 Z" fill="#c0b2b4" fill-opacity="0.501961" />
    <path d="M 881 591 L 917 751 L 876 676 Z" fill="#030008" fill-opacity="0.501961" />
    <path d="M 324 785 L 502 741 L 514 1133 Z" fill="#eccbb1" fill-opacity="0.501961" />
    <path d="M 581 541 L 646 954 L 852 1011 Z" fill="#eac3a7" fill-opacity="0.501961" />
    <path d="M -16 1361 L 8 1684 L 273 1661 Z" fill="#ffffff" fill-opacity="0.501961" />
    <path d="M 594 1136 L 823 935 L 834 1103 Z" fill="#e4c3a1" fill-opacity="0.501961" />
    <path d="M 684 462 L 807 604 L 770 520 Z" fill="#b67f64" fill-opacity="0.501961" />
    <path d="M 586 97 L 276 312 L 201 32 Z" fill="#d5d7cf" fill-opacity="0.501961" />
    <path d="M 276 389 L 443 187 L 414 533 Z" fill="#050707" fill-opacity="0.501961" />
    <path d="M 74 -16 L 52 439 L 286 416 Z" fill="#cdccc3" fill-opacity="0.501961" />
    <path d="M 364 745 L 351 576 L 392 631 Z" fill="#aa8f70" fill-opacity="0.501961" />
    <path d="M 797 699 L 775 717 L 764 678 Z" fill="#fff0f8" fill-opacity="0.501961" />
    <path d="M 925 623 L 938 490 L 746 643 Z" fill="#141013" fill-opacity="0.501961" />
    <path d="M 431 712 L 478 686 L 445 731 Z" fill="#170812" fill-opacity="0.501961" />
    <path d="M 757 1343 L 850 1057 L 754 1183 Z" fill="#87654f" fill-opacity="0.501961" />
    <path d="M 436 1282 L 375 1286 L 377 1093 Z" fill="#bfadad" fill-opacity="0.501961" />
    <path d="M 622 1283 L 655 1486 L 412 1345 Z" fill="#f2f1fb" fill-opacity="0.501961" />
    <path d="M 333 595 L 367 677 L 352 766 Z" fill="#201312" fill-opacity="0.501961" />
    <path d="M 663 950 L 652 1067 L 527 1009 Z" fill="#a2605d" fill-opacity="0.501961" />
    <path d="M 859 80 L 933 315 L 780 201 Z" fill="#e6e7e1" fill-opacity="0.501961" />
    <path d="M 473 1063 L 619 1186 L 579 1291 Z" fill="#b48662" fill-opacity="0.501961" />
    <path d="M 476 699 L 490 736 L 452 711 Z" fill="#f8ffff" fill-opacity="0.501961" />
    <path d="M 337 737 L 337 682 L 316 670 Z" fill="#b92200" fill-opacity="0.501961" />
    <path d="M -8 1259 L 167 1371 L 401 1089 Z" fill="#dcd9d9" fill-opacity="0.501961" />
    <path d="M 755 731 L 773 671 L 712 686 Z" fill="#0b020c" fill-opacity="0.501961" />
    <path d="M 841 1172 L 822 1167 L 849 1208 Z" fill="#3f3440" fill-opacity="0.501961" />
    <path d="M 830 588 L 626 367 L 937 402 Z" fill="#131013" fill-opacity="0.501961" />
    <path d="M 763 145 L 719 124 L 674 130 Z" fill="#191a18" fill-opacity="0.501961" />
    <path d="M 373 851 L 343 817 L 345 744 Z" fill="#bd704a" fill-opacity="0.501961" />
    <path d="M 461 647 L 374 660 L 366 866 Z" fill="#dac0a8" fill-opacity="0.501961" />
    <path d="M 745 1345 L 670 1493 L 622 1309 Z" fill="#b58c71" fill-opacity="0.501961" />
    <path d="M 890 291 L 408 244 L 710 147 Z" fill="#000000" fill-opacity="0.501961" />
    <path d="M 701 904 L 651 904 L 677 889 Z" fill="#62291a" fill-opacity="0.501961" />
    <path d="M 796 678 L 914 831 L 878 684 Z" fill="#d1b699" fill-opacity="0.501961" />
    <path d="M 226 1167 L 2 285 L -15 1265 Z" fill="#e9eae2" fill-opacity="0.501961" />
    <path d="M 691 742 L 731 674 L 659 646 Z" fill="#af8d74" fill-opacity="0.501961" />
    <path d="M 31 642 L 310 354 L 280 145 Z" fill="#d9d9d1" fill-opacity="0.501961" />
    <path d="M 417 717 L 495 756 L 564 747 Z" fill="#8c6664" fill-opacity="0.501961" />
    <path d="M 636 583 L 421 556 L 458 620 Z" fill="#bb967c" fill-opacity="0.501961" />
    <path d="M 939 738 L 918 633 L 895 658 Z" fill="#fcd7b6" fill-opacity="0.501961" />
    <path d="M 1226 1105 L 1268 528 L 925 580 Z" fill="#e2e4df" fill-opacity="0.501961" />
    <path d="M 433 85 L 958 -16 L 674 122 Z" fill="#dadad3" fill-opacity="0.501961" />
    <path d="M 802 1063 L 867 988 L 902 1040 Z" fill="#625042" fill-opacity="0.501961" />
    <path d="M 634 413 L 542 399 L 406 513 Z" fill="#4c362b" fill-opacity="0.501961" />
    <path d="M 809 1129 L 816 1259 L 781 1249 Z" fill="#4c3027" fill-opacity="0.501961" />
    <path d="M 785 589 L 732 630 L 609 501 Z" fill="#e6cdbe" fill-opacity="0.501961" />
    <path d="M 772 709 L 679 753 L 808 743 Z" fill="#c49e94" fill-opacity="0.501961" />
    <path d="M 507 1184 L 577 1313 L 510 1273 Z" fill="#faf8fe" fill-opacity="0.501961" />
    <path d="M 853 792 L 682 756 L 798 943 Z" fill="#f1dcce" fill-opacity="0.501961" />
    <path d="M 418 1058 L 429 1001 L 445 1120 Z" fill="#b3937b" fill-opacity="0.501961" />
    <path d="M 884 898 L 792 1157 L 785 1039 Z" fill="#c8a587" fill-opacity="0.501961" />
    <path d="M 521 1311 L 499 1186 L 461 1221 Z" fill="#a08d94" fill-opacity="0.501961" />
    <path d="M 1015 1089 L 1029 503 L 860 978 Z" fill="#e5e8e4" fill-opacity="0.501961" />
    <path d="M 578 1161 L 396 968 L 641 1082 Z" fill="#e2ccb9" fill-opacity="0.501961" />
    <path d="M 785 622 L 699 637 L 700 662 Z" fill="#271d22" fill-opacity="0.501961" />
    <path d="M 436 996 L -16 481 L 334 1258 Z" fill="#e1e2db" fill-opacity="0.501961" />
    <path d="M 587 913 L 578 896 L 610 907 Z" fill="#420f0f" fill-opacity="0.501961" />
    <path d="M 550 815 L 560 701 L 765 892 Z" fill="#d1a68c" fill-opacity="0.501961" />
    <path d="M 588 670 L 551 630 L 421 698 Z" fill="#977865" fill-opacity="0.501961" />
    <path d="M 1252 1245 L 886 1085 L 1268 1130 Z" fill="#cccdcb" fill-opacity="0.501961" />
    <path d="M 275 579 L 268 492 L 290 549 Z" fill="#53534c" fill-opacity="0.501961" />
    <path d="M 601 1009 L 669 1015 L 727 986 Z" fill="#761b27" fill-opacity="0.501961" />
    <path d="M 363 1493 L 282 1148 L 247 1502 Z" fill="#f7f7fa" fill-opacity="0.501961" />
    <path d="M 411 541 L 679 451 L 529 439 Z" fill="#9f765d" fill-opacity="0.501961" />
    <path d="M 417 597 L 565 645 L 507 661 Z" fill="#3c3335" fill-opacity="0.501961" />
    <path d="M 737 137 L 681 143 L 796 167 Z" fill="#c8cac0" fill-opacity="0.501961" />
    <path d="M 489 742 L 519 728 L 493 702 Z" fill="#000000" fill-opacity="0.501961" />
    <path d="M 543 848 L 521 886 L 558 924 Z" fill="#926453" fill-opacity="0.501961" />
    <path d="M 833 1022 L 891 1078 L 863 1114 Z" fill="#231310" fill-opacity="0.501961" />
    <path d="M 317 612 L 300 643 L 328 660 Z" fill="#999a90" fill-opacity="0.501961" />
    <path d="M 771 177 L 443 193 L 619 118 Z" fill="#0a090c" fill-opacity="0.501961" />
    <path d="M 464 1070 L 550 1164 L 532 1230 Z" fill="#714838" fill-opacity="0.501961" />
    <path d="M 884 900 L 873 701 L 794 731 Z" fill="#e3c7ae" fill-opacity="0.501961" />
    <path d="M 342 590 L 435 604 L 423 471 Z" fill="#4d3a32" fill-opacity="0.501961" />
    <path d="M 1006 231 L 934 528 L 1157 713 Z" fill="#e1e3de" fill-opacity="0.501961" />
    <path d="M 653 1096 L 895 864 L 724 1207 Z" fill="#dec3a6" fill-opacity="0.501961" />
    <path d="M 887 294 L 906 333 L 866 287 Z" fill="#434341" fill-opacity="0.501961" />
    <path d="M 534 144 L 581 123 L 554 127 Z" fill="#b5b5af" fill-opacity="0.501961" />
    <path d="M 688 1460 L 708 1614 L 745 1358 Z" fill="#f3f2fb" fill-opacity="0.501961" />
    <path d="M 880 649 L 867 674 L 869 605 Z" fill="#9e846f" fill-opacity="0.501961" />
    <path d="M 675 547 L 550 615 L 643 817 Z" fill="#dec6b4" fill-opacity="0.501961" />
    <path d="M 290 572 L 310 509 L 305 638 Z" fill="#040709" fill-opacity="0.501961" />
    <path d="M 545 638 L 656 455 L 445 608 Z" fill="#c19a84" fill-opacity="0.501961" />
    <path d="M 554 988 L 470 1027 L 389 781 Z" fill="#e9d8c9" fill-opacity="0.501961" />
    <path d="M 550 739 L 538 702 L 559 729 Z" fill="#29090a" fill-opacity="0.501961" />
    <path d="M 933 795 L 873 817 L 949 616 Z" fill="#cc9679" fill-opacity="0.501961" />
    <path d="M 534 701 L 478 707 L 504 687 Z" fill="#000000" fill-opacity="0.501961" />
    <path d="M 788 1097 L 665 1378 L 563 1215 Z" fill="#d6b791" fill-opacity="0.501961" />
    <path d="M 607 850 L 543 899 L 687 891 Z" fill="#e9c2b9" fill-opacity="0.501961" />
    <path d="M 782 725 L 824 705 L 805 638 Z" fill="#7b544a" fill-opacity="0.501961" />
    <path d="M 754 190 L 915 355 L 804 588 Z" fill="#0c0c0e" fill-opacity="0.501961" />
    <path d="M 319 331 L 465 108 L 7 299 Z" fill="#d5d4cd" fill-opacity="0.501961" />
    <path d="M 268 440 L 216 476 L 267 484 Z" fill="#c4c2b6" fill-opacity="0.501961" />
    <path d="M 892 537 L 943 578 L 918 451 Z" fill="#040505" fill-opacity="0.501961" />
    <path d="M 921 1162 L 920 1057 L 814 1170 Z" fill="#e9e7eb" fill-opacity="0.501961" />
    <path d="M 317 961 L -16 637 L 346 720 Z" fill="#e4e4dd" fill-opacity="0.501961" />
    <path d="M 744 690 L 761 696 L 750 708 Z" fill="#b9bdd1" fill-opacity="0.501961" />
    <path d="M 678 1479 L 650 1436 L 662 1530 Z" fill="#7f5548" fill-opacity="0.501961" />
    <path d="M 764 1149 L 764 1346 L 714 1240 Z" fill="#be9979" fill-opacity="0.501961" />
    <path d="M 431 1684 L 651 1466 L 597 1675 Z" fill="#e3e1e5" fill-opacity="0.501961" />
    <path d="M 443 1344 L 428 1139 L 483 1297 Z" fill="#fbfcff" fill-opacity="0.501961" />
    <path d="M 284 539 L 287 658 L 263 613 Z" fill="#d4dad1" fill-opacity="0.501961" />
    <path d="M 921 735 L 897 768 L 904 687 Z" fill="#6a4138" fill-opacity="0.501961" />
    <path d="M 546 722 L 522 732 L 530 707 Z" fill="#dfe1ed" fill-opacity="0.501961" />
    <path d="M 558 852 L 360 696 L 580 790 Z" fill="#d7beae" fill-opacity="0.501961" />
    <path d="M 84 265 L -16 -16 L 358 22 Z" fill="#cacabe" fill-opacity="0.501961" />
    <path d="M 579 1023 L 748 1006 L 656 1064 Z" fill="#c57875" fill-opacity="0.501961" />
    <path d="M 391 661 L 387 629 L 461 615 Z" fill="#3d3333" fill-opacity="0.501961" />
    <path d="M 594 349 L 721 432 L 502 421 Z" fill="#201b1b" fill-opacity="0.501961" />
    <path d="M 1268 354 L 1035 -16 L 734 156 Z" fill="#d9dad4" fill-opacity="0.501961" />
    <path d="M 492 465 L 465 180 L 277 504 Z" fill="#040405" fill-opacity="0.501961" />
    <path d="M 787 416 L 631 167 L 725 145 Z" fill="#0c0c0e" fill-opacity="0.501961" />
    <path d="M 509 705 L 509 721 L 522 711 Z" fill="#e1f2ff" fill-opacity="0.501961" />
    <path d="M 579 656 L 476 681 L 567 704 Z" fill="#c19d7f" fill-opacity="0.501961" />
    <path d="M 956 1127 L 931 1684 L 1268 1257 Z" fill="#e3e0e9" fill-opacity="0.501961" />
    <path d="M 236 456 L 292 384 L 298 417 Z" fill="#5a5851" fill-opacity="0.501961" />
    <path d="M 478 1064 L 454 1108 L 434 1014 Z" fill="#382218" fill-opacity="0.501961" />
    <path d="M 768 673 L 818 699 L 795 698 Z" fill="#0d0000" fill-opacity="0.501961" />
    <path d="M 769 984 L 621 965 L 522 1020 Z" fill="#9f7262" fill-opacity="0.501961" />
    <path d="M 855 696 L 870 592 L 831 588 Z" fill="#0e090c" fill-opacity="0.501961" />
    <path d="M 806 599 L 749 372 L 939 613 Z" fill="#1c1a1d" fill-opacity="0.501961" />
    <path d="M 923 611 L 950 567 L 928 559 Z" fill="#6e6e68" fill-opacity="0.501961" />
    <path d="M 419 267 L 311 344 L 377 251 Z" fill="#141616" fill-opacity="0.501961" />
    <path d="M 361 1463 L 362 1171 L 515 1634 Z" fill="#dfdbdc" fill-opacity="0.501961" />
    <path d="M 722 687 L 759 672 L 734 719 Z" fill="#000000" fill-opacity="0.501961" />
    <path d="M 653 979 L 473 918 L 718 898 Z" fill="#d2a995" fill-opacity="0.501961" />
    <path d="M 936 698 L 941 608 L 918 617 Z" fill="#c76d4e" fill-opacity="0.501961" />
    <path d="M 508 144 L 478 189 L 564 121 Z" fill="#262624" fill-opacity="0.501961" />
    <path d="M 830 1243 L 812 1177 L 830 1157 Z" fill="#edf1f7" fill-opacity="0.501961" />
    <path d="M 476 166 L 765 -16 L 202 13 Z" fill="#d3d4cd" fill-opacity="0.501961" />
    <path d="M 438 193 L 411 194 L 380 253 Z" fill="#b2b4a9" fill-opacity="0.501961" />
    <path d="M 924 703 L 1099 1053 L 1094 558 Z" fill="#e4e7e1" fill-opacity="0.501961" />
    <path d="M 1090 118 L 1250 -16 L 1265 279 Z" fill="#cbcfc8" fill-opacity="0.501961" />
    <path d="M 908 1043 L 891 1007 L 887 1098 Z" fill="#bfaca4" fill-opacity="0.501961" />
    <path d="M 818 1245 L 792 1280 L 849 1329 Z" fill="#d7cdcd" fill-opacity="0.501961" />
    <path d="M 298 624 L 357 849 L 115 449 Z" fill="#dfe1da" fill-opacity="0.501961" />
    <path d="M 899 394 L 688 291 L 820 302 Z" fill="#1e1d24" fill-opacity="0.501961" />
    <path d="M 720 466 L 785 530 L 806 622 Z" fill="#705042" fill-opacity="0.501961" />
    <path d="M 636 454 L 752 516 L 802 616 Z" fill="#ba9480" fill-opacity="0.501961" />
    <path d="M 358 741 L 429 646 L 471 654 Z" fill="#d6c3b6" fill-opacity="0.501961" />
    <path d="M 494 725 L 469 732 L 465 701 Z" fill="#e1ebfc" fill-opacity="0.501961" />
    <path d="M 380 646 L 351 599 L 391 627 Z" fill="#c5aa8c" fill-opacity="0.501961" />
    <path d="M 426 1061 L 498 1180 L 443 1130 Z" fill="#d5bdac" fill-opacity="0.501961" />
    <path d="M -16 286 L 278 395 L 61 713 Z" fill="#dbdad3" fill-opacity="0.501961" />
    <path d="M 483 751 L 572 730 L 635 865 Z" fill="#c89f87" fill-opacity="0.501961" />
    <path d="M 767 718 L 794 701 L 767 683 Z" fill="#ddcfd2" fill-opacity="0.501961" />
    <path d="M 897 307 L 985 482 L 910 118 Z" fill="#e1e2dc" fill-opacity="0.501961" />
    <path d="M 391 1114 L 404 1225 L 381 1182 Z" fill="#b19c9b" fill-opacity="0.501961" />
    <path d="M 877 976 L 995 1302 L 1020 1007 Z" fill="#d9dad9" fill-opacity="0.501961" />
    <path d="M 651 1435 L 617 1294 L 523 1328 Z" fill="#f5f4f9" fill-opacity="0.501961" />
    <path d="M 428 206 L 417 196 L 403 249 Z" fill="#9b9b91" fill-opacity="0.501961" />
    <path d="M 386 1103 L 340 1167 L 183 1188 Z" fill="#d0caca" fill-opacity="0.501961" />
    <path d="M 746 130 L 709 116 L 671 126 Z" fill="#a9a69e" fill-opacity="0.501961" />
    <path d="M 933 485 L 952 381 L 927 425 Z" fill="#babcb3" fill-opacity="0.501961" />
    <path d="M 775 202 L 743 115 L 825 229 Z" fill="#bfbfb5" fill-opacity="0.501961" />
    <path d="M 407 593 L 434 619 L 404 616 Z" fill="#b8987d" fill-opacity="0.501961" />
    <path d="M 95 1075 L -16 1331 L 3 690 Z" fill="#efefe8" fill-opacity="0.501961" />
    <path d="M 445 1109 L 388 1117 L 436 1273 Z" fill="#fafbff" fill-opacity="0.501961" />
    <path d="M 482 746 L 360 778 L 358 715 Z" fill="#dcbfa3" fill-opacity="0.501961" />
    <path d="M 743 379 L 821 328 L 897 478 Z" fill="#010202" fill-opacity="0.501961" />
    <path d="M 491 742 L 427 728 L 428 702 Z" fill="#836057" fill-opacity="0.501961" />
    <path d="M 716 39 L 847 255 L 1222 389 Z" fill="#ddded8" fill-opacity="0.501961" />
    <path d="M 760 684 L 770 695 L 761 714 Z" fill="#000000" fill-opacity="0.501961" />
    <path d="M 1268 805 L 900 15 L 1268 320 Z" fill="#dbdcd6" fill-opacity="0.501961" />
    <path d="M 363 795 L 356 746 L 345 761 Z" fill="#633625" fill-opacity="0.501961" />
    <path d="M 858 1060 L 859 1114 L 802 1181 Z" fill="#4d3328" fill-opacity="0.501961" />
    <path d="M 786 1300 L 643 1401 L 660 1485 Z" fill="#b38c76" fill-opacity="0.501961" />
    <path d="M 821 1201 L 785 1201 L 809 1254 Z" fill="#50332a" fill-opacity="0.501961" />
    <path d="M 435 723 L 488 686 L 447 700 Z" fill="#2e1e1c" fill-opacity="0.501961" />
    <path d="M 892 330 L 891 316 L 877 314 Z" fill="#b8b7b0" fill-opacity="0.501961" />
    <path d="M 272 554 L 281 526 L 274 508 Z" fill="#000000" fill-opacity="0.501961" />
    <path d="M 579 1473 L 517 1340 L 649 1465 Z" fill="#dcd8d7" fill-opacity="0.501961" />
    <path d="M 952 827 L 944 342 L 1116 568 Z" fill="#e3e5e0" fill-opacity="0.501961" />
    <path d="M 622 1684 L 665 1525 L 621 1574 Z" fill="#c3b6b8" fill-opacity="0.501961" />
    <path d="M 702 1564 L 918 1376 L 715 1684 Z" fill="#e2dde2" fill-opacity="0.501961" />
    <path d="M 657 644 L 658 676 L 722 623 Z" fill="#9b8380" fill-opacity="0.501961" />
    <path d="M 539 677 L 520 624 L 581 645 Z" fill="#7b6663" fill-opacity="0.501961" />
    <path d="M 673 599 L 532 622 L 633 479 Z" fill="#d6b399" fill-opacity="0.501961" />
    <path d="M 938 487 L 948 499 L 932 528 Z" fill="#76766c" fill-opacity="0.501961" />
    <path d="M 861 654 L 797 516 L 819 676 Z" fill="#0f0a0a" fill-opacity="0.501961" />
    <path d="M 553 129 L 561 118 L 579 114 Z" fill="#16170e" fill-opacity="0.501961" />
    <path d="M 679 1626 L 669 1510 L 628 1684 Z" fill="#f8f7fe" fill-opacity="0.501961" />
    <path d="M 937 407 L 928 374 L 915 452 Z" fill="#3f4038" fill-opacity="0.501961" />
    <path d="M 508 143 L 469 183 L 496 124 Z" fill="#d4d3cb" fill-opacity="0.501961" />
    <path d="M 711 1107 L 570 1147 L 573 1300 Z" fill="#c9a98b" fill-opacity="0.501961" />
    <path d="M 895 660 L 927 621 L 942 769 Z" fill="#dab49a" fill-opacity="0.501961" />
    <path d="M 541 1000 L 561 1015 L 610 1006 Z" fill="#6b3b43" fill-opacity="0.501961" />
    <path d="M 266 1287 L 116 1509 L -16 1261 Z" fill="#e7e5e9" fill-opacity="0.501961" />
    <path d="M 799 216 L 789 237 L 819 230 Z" fill="#131012" fill-opacity="0.501961" />
    <path d="M 710 129 L 693 149 L 728 130 Z" fill="#111011" fill-opacity="0.501961" />
    <path d="M 750 729 L 845 668 L 799 723 Z" fill="#896861" fill-opacity="0.501961" />
    <path d="M 688 730 L 740 651 L 707 657 Z" fill="#9e785e" fill-opacity="0.501961" />
    <path d="M 917 358 L 929 355 L 927 384 Z" fill="#c4c6b7" fill-opacity="0.501961" />
    <path d="M 549 -16 L 1109 56 L 641 124 Z" fill="#d7d8d2" fill-opacity="0.501961" />
    <path d="M 282 497 L 261 503 L 272 421 Z" fill="#575550" fill-opacity="0.501961" />
    <path d="M 897 1302 L 824 1174 L 814 1249 Z" fill="#f0eeef" fill-opacity="0.501961" />
    <path d="M 606 904 L 604 913 L 581 896 Z" fill="#481a16" fill-opacity="0.501961" />
    <path d="M 344 485 L 328 516 L 418 592 Z" fill="#0d0c0d" fill-opacity="0.501961" />
    <path d="M 869 943 L 863 756 L 909 772 Z" fill="#d2b9a0" fill-opacity="0.501961" />
    <path d="M 436 681 L 356 682 L 437 743 Z" fill="#caad98" fill-opacity="0.501961" />
    <path d="M 743 575 L 607 643 L 782 609 Z" fill="#e2cfc6" fill-opacity="0.501961" />
    <path d="M 928 1347 L 819 1535 L 926 1136 Z" fill="#dedbe1" fill-opacity="0.501961" />
    <path d="M 675 436 L 729 485 L 588 436 Z" fill="#7b5f52" fill-opacity="0.501961" />
    <path d="M 751 656 L 793 662 L 795 639 Z" fill="#d0bba9" fill-opacity="0.501961" />
    <path d="M 321 339 L 352 278 L 541 344 Z" fill="#161516" fill-opacity="0.501961" />
    <path d="M 435 1008 L 421 1038 L 453 1031 Z" fill="#936f56" fill-opacity="0.501961" />
    <path d="M 1017 1679 L 719 1661 L 1165 1260 Z" fill="#e9e7eb" fill-opacity="0.501961" />
    <path d="M 368 712 L 332 662 L 329 601 Z" fill="#231e20" fill-opacity="0.501961" />
    <path d="M 751 652 L 828 604 L 680 646 Z" fill="#433739" fill-opacity="0.501961" />
    <path d="M 532 292 L 705 264 L 619 252 Z" fill="#1c1b1f" fill-opacity="0.501961" />
    <path d="M 1 1644 L -4 1684 L 8 1667 Z" fill="#847f89" fill-opacity="0.501961" />
    <path d="M 474 1282 L 486 1312 L 550 1295 Z" fill="#c9bcc0" fill-opacity="0.501961" />
    <path d="M 668 743 L 626 607 L 572 739 Z" fill="#e4ccb7" fill-opacity="0.501961" />
    <path d="M 175 1585 L 4 1413 L 20 1684 Z" fill="#fcfcff" fill-opacity="0.501961" />
    <path d="M 485 492 L 445 462 L 529 444 Z" fill="#503e33" fill-opacity="0.501961" />
    <path d="M 833 679 L 880 673 L 904 747 Z" fill="#ae987d" fill-opacity="0.501961" />
    <path d="M 687 915 L 524 1015 L 523 944 Z" fill="#d7b8a5" fill-opacity="0.501961" />
    <path d="M 660 1169 L 672 1046 L 597 1050 Z" fill="#ceaf96" fill-opacity="0.501961" />
    <path d="M 539 329 L 756 379 L 676 269 Z" fill="#000000" fill-opacity="0.501961" />
    <path d="M 737 720 L 763 710 L 719 704 Z" fill="#070000" fill-opacity="0.501961" />
    <path d="M 756 1548 L 724 1391 L 834 1244 Z" fill="#e5e3e7" fill-opacity="0.501961" />
    <path d="M 766 1336 L 790 1285 L 746 1202 Z" fill="#af8570" fill-opacity="0.501961" />
    <path d="M 373 530 L 402 541 L 421 590 Z" fill="#6a5348" fill-opacity="0.501961" />
    <path d="M 509 737 L 525 720 L 491 729 Z" fill="#0f0005" fill-opacity="0.501961" />
    <path d="M 899 1068 L 856 1127 L 887 1109 Z" fill="#cdbdb4" fill-opacity="0.501961" />
    <path d="M 845 1182 L 845 1206 L 832 1166 Z" fill="#574548" fill-opacity="0.501961" />
    <path d="M 900 482 L 894 396 L 844 329 Z" fill="#242329" fill-opacity="0.501961" />
    <path d="M 697 967 L 722 831 L 854 995 Z" fill="#e5caae" fill-opacity="0.501961" />
    <path d="M 769 664 L 798 679 L 748 669 Z" fill="#dcbc9e" fill-opacity="0.501961" />
    <path d="M 374 548 L 332 620 L 283 566 Z" fill="#17161a" fill-opacity="0.501961" />
    <path d="M 872 628 L 896 644 L 896 707 Z" fill="#1d1a1d" fill-opacity="0.501961" />
    <path d="M 309 358 L 123 431 L 302 262 Z" fill="#d7d8cf" fill-opacity="0.501961" />
    <path d="M 530 626 L 531 464 L 438 600 Z" fill="#b48e76" fill-opacity="0.501961" />
    <path d="M 550 727 L 515 747 L 468 737 Z" fill="#885f55" fill-opacity="0.501961" />
    <path d="M 613 796 L 606 848 L 516 885 Z" fill="#b98b78" fill-opacity="0.501961" />
    <path d="M 532 132 L 402 113 L 671 69 Z" fill="#dadad3" fill-opacity="0.501961" />
    <path d="M 342 688 L 347 748 L 331 742 Z" fill="#facaa5" fill-opacity="0.501961" />
    <path d="M 477 1146 L 473 1069 L 532 1210 Z" fill="#603e2e" fill-opacity="0.501961" />
    <path d="M 468 1206 L 478 1282 L 507 1293 Z" fill="#8f8186" fill-opacity="0.501961" />
    <path d="M -16 706 L 435 1102 L 378 857 Z" fill="#e7e6e1" fill-opacity="0.501961" />
    <path d="M 687 892 L 667 894 L 696 913 Z" fill="#704134" fill-opacity="0.501961" />
    <path d="M 629 459 L 699 492 L 489 565 Z" fill="#c49c84" fill-opacity="0.501961" />
    <path d="M 691 1054 L 727 989 L 766 985 Z" fill="#c0947d" fill-opacity="0.501961" />
    <path d="M 405 583 L 433 594 L 444 616 Z" fill="#0a0202" fill-opacity="0.501961" />
    <path d="M 512 654 L 534 689 L 439 686 Z" fill="#ac8062" fill-opacity="0.501961" />
    <path d="M 821 1155 L 832 1028 L 854 1066 Z" fill="#775641" fill-opacity="0.501961" />
    <path d="M 903 456 L 897 332 L 925 381 Z" fill="#070805" fill-opacity="0.501961" />
    <path d="M 523 697 L 519 728 L 529 712 Z" fill="#0d0a24" fill-opacity="0.501961" />
    <path d="M 724 900 L 686 919 L 688 787 Z" fill="#d3ab91" fill-opacity="0.501961" />
    <path d="M 500 66 L 379 250 L 334 91 Z" fill="#d5d5cd" fill-opacity="0.501961" />
    <path d="M 846 1137 L 819 1159 L 856 1097 Z" fill="#3d2620" fill-opacity="0.501961" />
    <path d="M 710 670 L 649 673 L 686 723 Z" fill="#d3b08e" fill-opacity="0.501961" />
    <path d="M 810 1141 L 758 1172 L 834 1015 Z" fill="#b59173" fill-opacity="0.501961" />
    <path d="M 276 383 L 285 376 L 286 398 Z" fill="#8f8a84" fill-opacity="0.501961" />
    <path d="M 232 479 L 241 453 L 233 462 Z" fill="#4f4f46" fill-opacity="0.501961" />
    <path d="M 402 445 L 329 533 L 523 434 Z" fill="#1a1717" fill-opacity="0.501961" />
    <path d="M 1167 1007 L 896 831 L 869 985 Z" fill="#e3e6e2" fill-opacity="0.501961" />
    <path d="M 861 430 L 884 537 L 935 458 Z" fill="#131417" fill-opacity="0.501961" />
    <path d="M 651 1577 L 709 1417 L 716 1598 Z" fill="#f0eff4" fill-opacity="0.501961" />
    <path d="M 925 668 L 938 631 L 935 682 Z" fill="#9f4636" fill-opacity="0.501961" />
    <path d="M 880 296 L 901 322 L 928 318 Z" fill="#dfdfdb" fill-opacity="0.501961" />
    <path d="M 714 152 L 717 147 L 732 150 Z" fill="#000000" fill-opacity="0.501961" />
    <path d="M 394 650 L 352 616 L 341 627 Z" fill="#53443d" fill-opacity="0.501961" />
    <path d="M 392 642 L 415 588 L 367 584 Z" fill="#6b5344" fill-opacity="0.501961" />
    <path d="M 590 410 L 677 433 L 512 434 Z" fill="#4a382f" fill-opacity="0.501961" />
    <path d="M 930 603 L 897 642 L 916 633 Z" fill="#794e38" fill-opacity="0.501961" />
    <path d="M 466 801 L 478 742 L 433 757 Z" fill="#dfd3ca" fill-opacity="0.501961" />
    <path d="M 946 497 L 935 542 L 953 574 Z" fill="#d1d3ca" fill-opacity="0.501961" />
    <path d="M 778 585 L 701 501 L 555 605 Z" fill="#d9bba4" fill-opacity="0.501961" />
    <path d="M 809 596 L 782 626 L 762 618 Z" fill="#8a7a7d" fill-opacity="0.501961" />
    <path d="M 519 1199 L 462 1172 L 486 1155 Z" fill="#e4d4d0" fill-opacity="0.501961" />
    <path d="M 272 427 L 264 420 L 282 423 Z" fill="#b8b8aa" fill-opacity="0.501961" />
    <path d="M 838 672 L 823 687 L 768 662 Z" fill="#6a4837" fill-opacity="0.501961" />
    <path d="M 305 590 L 377 687 L 329 655 Z" fill="#332f31" fill-opacity="0.501961" />
    <path d="M 891 306 L 890 290 L 870 277 Z" fill="#363531" fill-opacity="0.501961" />
    <path d="M 440 196 L 511 185 L 384 275 Z" fill="#141313" fill-opacity="0.501961" />
    <path d="M 250 1284 L 98 1220 L 199 1179 Z" fill="#ddd8d7" fill-opacity="0.501961" />
    <path d="M 534 1295 L 504 1297 L 483 1194 Z" fill="#baa9a9" fill-opacity="0.501961" />
    <path d="M 272 562 L 280 568 L 278 539 Z" fill="#1a1713" fill-opacity="0.501961" />
    <path d="M 392 266 L 373 262 L 413 222 Z" fill="#232423" fill-opacity="0.501961" />
    <path d="M 837 252 L 803 271 L 883 276 Z" fill="#0d0c0b" fill-opacity="0.501961" />
    <path d="M 514 1117 L 543 1249 L 563 1179 Z" fill="#a1745a" fill-opacity="0.501961" />
    <path d="M 438 1077 L 463 1059 L 464 1121 Z" fill="#211111" fill-opacity="0.501961" />
    <path d="M 884 1242 L 835 1165 L 932 1128 Z" fill="#eff0f6" fill-opacity="0.501961" />
    <path d="M 284 405 L 290 368 L 334 362 Z" fill="#2e2d2b" fill-opacity="0.501961" />
    <path d="M 642 123 L 599 107 L 615 126 Z" fill="#6d6c64" fill-opacity="0.501961" />
    <path d="M 386 322 L 541 144 L 604 248 Z" fill="#010101" fill-opacity="0.501961" />
    <path d="M 240 456 L 263 467 L 253 519 Z" fill="#deded4" fill-opacity="0.501961" />
    <path d="M 763 725 L 680 728 L 718 756 Z" fill="#bf9989" fill-opacity="0.501961" />
    <path d="M 411 526 L 431 572 L 501 474 Z" fill="#93715a" fill-opacity="0.501961" />
    <path d="M 318 663 L 337 721 L 337 687 Z" fill="#9f3521" fill-opacity="0.501961" />
    <path d="M 631 99 L 590 117 L 649 108 Z" fill="#d6d4cc" fill-opacity="0.501961" />
    <path d="M 360 271 L 356 240 L 328 303 Z" fill="#adaea1" fill-opacity="0.501961" />
    <path d="M 278 553 L 283 516 L 288 555 Z" fill="#918e88" fill-opacity="0.501961" />
    <path d="M 438 608 L 453 649 L 510 643 Z" fill="#2f2829" fill-opacity="0.501961" />
    <path d="M 761 144 L 769 152 L 750 144 Z" fill="#585a52" fill-opacity="0.501961" />
    <path d="M 935 440 L 913 434 L 904 441 Z" fill="#050705" fill-opacity="0.501961" />
    <path d="M 845 1003 L 885 1003 L 885 1087 Z" fill="#675347" fill-opacity="0.501961" />
    <path d="M 309 335 L 320 318 L 318 346 Z" fill="#6b6b60" fill-opacity="0.501961" />
    <path d="M 771 1237 L 796 1131 L 833 1139 Z" fill="#755646" fill-opacity="0.501961" />
    <path d="M 564 1258 L 671 1341 L 640 1238 Z" fill="#debd9e" fill-opacity="0.501961" />
    <path d="M 892 1004 L 900 1038 L 860 981 Z" fill="#b0acad" fill-opacity="0.501961" />
    <path d="M 339 777 L 357 821 L 357 798 Z" fill="#bd6647" fill-opacity="0.501961" />
    <path d="M 387 700 L 361 696 L 360 675 Z" fill="#d2ba9c" fill-opacity="0.501961" />
    <path d="M 416 615 L 377 653 L 457 644 Z" fill="#504644" fill-opacity="0.501961" />
    <path d="M 279 443 L 251 466 L 251 436 Z" fill="#7c7b70" fill-opacity="0.501961" />
    <path d="M 1227 939 L 957 1096 L 1268 1200 Z" fill="#dadcd5" fill-opacity="0.501961" />
    <path d="M 3 160 L -6 -16 L 172 0 Z" fill="#c7c8ba" fill-opacity="0.501961" />
    <path d="M 263 429 L 192 474 L 277 374 Z" fill="#cfcfc5" fill-opacity="0.501961" />
    <path d="M 690 437 L 748 473 L 777 535 Z" fill="#4c382f" fill-opacity="0.501961" />
    <path d="M 748 690 L 756 708 L 759 691 Z" fill="#9697a6" fill-opacity="0.501961" />
    <path d="M 741 186 L 687 142 L 767 176 Z" fill="#2a282c" fill-opacity="0.501961" />
    <path d="M 488 715 L 513 728 L 506 703 Z" fill="#000000" fill-opacity="0.501961" />
    <path d="M 859 917 L 887 889 L 857 987 Z" fill="#c1aa95" fill-opacity="0.501961" />
    <path d="M 417 650 L 390 700 L 489 667 Z" fill="#d4bdae" fill-opacity="0.501961" />
    <path d="M 657 953 L 641 877 L 736 983 Z" fill="#dec0a9" fill-opacity="0.501961" />
    <path d="M 935 690 L 945 614 L 951 659 Z" fill="#e6b594" fill-opacity="0.501961" />
    <path d="M 358 1289 L 200 1195 L 296 1164 Z" fill="#edebf0" fill-opacity="0.501961" />
    <path d="M 562 1028 L 633 958 L 570 986 Z" fill="#b78c7f" fill-opacity="0.501961" />
    <path d="M 550 880 L 563 912 L 602 872 Z" fill="#e5ccbe" fill-opacity="0.501961" />
    <path d="M 400 660 L 396 682 L 364 629 Z" fill="#a48e7e" fill-opacity="0.501961" />
    <path d="M 299 375 L 305 355 L 312 354 Z" fill="#a6a196" fill-opacity="0.501961" />
    <path d="M 586 1603 L 648 1446 L 661 1531 Z" fill="#d7cfd3" fill-opacity="0.501961" />
    <path d="M 461 727 L 487 735 L 487 708 Z" fill="#d2d6e2" fill-opacity="0.501961" />
    <path d="M 830 315 L 778 199 L 668 161 Z" fill="#050504" fill-opacity="0.501961" />
    <path d="M 486 1032 L 524 1121 L 446 1023 Z" fill="#d8b89d" fill-opacity="0.501961" />
    <path d="M 573 899 L 622 917 L 578 920 Z" fill="#a77c70" fill-opacity="0.501961" />
    <path d="M 681 794 L 832 725 L 880 761 Z" fill="#e6cdbc" fill-opacity="0.501961" />
    <path d="M 941 484 L 970 395 L 931 412 Z" fill="#dadcd5" fill-opacity="0.501961" />
    <path d="M 571 771 L 430 796 L 561 855 Z" fill="#d8b69f" fill-opacity="0.501961" />
    <path d="M 1228 1423 L 1210 1684 L 924 1640 Z" fill="#edecf1" fill-opacity="0.501961" />
    <path d="M 877 562 L 870 462 L 832 437 Z" fill="#000000" fill-opacity="0.501961" />
    <path d="M 679 122 L 724 126 L 713 140 Z" fill="#3a3a38" fill-opacity="0.501961" />
    <path d="M 504 148 L 545 142 L 482 170 Z" fill="#31312f" fill-opacity="0.501961" />
    <path d="M 193 622 L -16 371 L 242 434 Z" fill="#dbdbd2" fill-opacity="0.501961" />
    <path d="M 795 206 L 839 249 L 792 163 Z" fill="#d6d7cf" fill-opacity="0.501961" />
    <path d="M 825 1284 L 822 1301 L 846 1322 Z" fill="#a9a6af" fill-opacity="0.501961" />
    <path d="M 484 328 L 291 401 L 505 419 Z" fill="#000100" fill-opacity="0.501961" />
    <path d="M 370 841 L 430 1008 L 538 1021 Z" fill="#e3cfb9" fill-opacity="0.501961" />
    <path d="M 425 715 L 421 696 L 488 680 Z" fill="#b79882" fill-opacity="0.501961" />
    <path d="M 434 1258 L 370 1159 L 362 1334 Z" fill="#d5caca" fill-opacity="0.501961" />
    <path d="M 397 1034 L 476 1200 L 436 1274 Z" fill="#f5f4f7" fill-opacity="0.501961" />
    <path d="M 931 484 L 929 450 L 946 498 Z" fill="#8c8c82" fill-opacity="0.501961" />
    <path d="M 374 586 L 384 617 L 389 605 Z" fill="#a48f78" fill-opacity="0.501961" />
    <path d="M 944 563 L 940 551 L 925 574 Z" fill="#3a3535" fill-opacity="0.501961" />
    <path d="M 931 1088 L 1026 1159 L 1141 1171 Z" fill="#c9c7cf" fill-opacity="0.501961" />
    <path d="M 271 471 L 379 495 L 321 551 Z" fill="#060706" fill-opacity="0.501961" />
    <path d="M 680 1491 L 669 1461 L 696 1445 Z" fill="#a07a6a" fill-opacity="0.501961" />
    <path d="M 510 1207 L 512 1267 L 594 1316 Z" fill="#efeeef" fill-opacity="0.501961" />
    <path d="M 768 176 L 754 185 L 786 186 Z" fill="#808077" fill-opacity="0.501961" />
    <path d="M 1216 1388 L 896 1153 L 1268 1244 Z" fill="#dfdee5" fill-opacity="0.501961" />
    <path d="M 754 720 L 770 706 L 776 715 Z" fill="#dacfe1" fill-opacity="0.501961" />
    <path d="M 249 440 L 289 428 L 299 442 Z" fill="#252521" fill-opacity="0.501961" />
    <path d="M 265 521 L 279 481 L 283 495 Z" fill="#6c6864" fill-opacity="0.501961" />
    <path d="M 648 835 L 708 883 L 635 875 Z" fill="#e9cecb" fill-opacity="0.501961" />
    <path d="M 451 1055 L 440 1082 L 428 1030 Z" fill="#5f4b44" fill-opacity="0.501961" />
    <path d="M 841 974 L 822 1045 L 861 978 Z" fill="#caad99" fill-opacity="0.501961" />
    <path d="M 269 508 L 249 546 L 266 470 Z" fill="#aaa79b" fill-opacity="0.501961" />
    <path d="M 895 830 L 935 796 L 942 739 Z" fill="#dfb8a1" fill-opacity="0.501961" />
    <path d="M 579 742 L 567 703 L 522 687 Z" fill="#b8987b" fill-opacity="0.501961" />
    <path d="M 1037 -16 L 773 132 L 554 103 Z" fill="#d8d9d2" fill-opacity="0.501961" />
    <path d="M 626 1180 L 547 1127 L 562 1280 Z" fill="#c59c7a" fill-opacity="0.501961" />
    <path d="M 866 674 L 872 622 L 883 694 Z" fill="#8e7a67" fill-opacity="0.501961" />
    <path d="M 423 578 L 391 523 L 415 545 Z" fill="#18141a" fill-opacity="0.501961" />
    <path d="M 607 1661 L 645 1603 L 627 1684 Z" fill="#bfb1b6" fill-opacity="0.501961" />
    <path d="M 899 1296 L 810 1257 L 858 1186 Z" fill="#edeef2" fill-opacity="0.501961" />
    <path d="M 738 141 L 732 157 L 795 169 Z" fill="#e0e1d9" fill-opacity="0.501961" />
    <path d="M 726 686 L 749 672 L 781 678 Z" fill="#190b07" fill-opacity="0.501961" />
    <path d="M 875 278 L 872 262 L 894 293 Z" fill="#bfbdb6" fill-opacity="0.501961" />
    <path d="M 13 1256 L 21 1264 L 38 1248 Z" fill="#afafaa" fill-opacity="0.501961" />
    <path d="M 639 1374 L 680 1230 L 774 1298 Z" fill="#ceab92" fill-opacity="0.501961" />
    <path d="M 428 207 L 445 175 L 447 190 Z" fill="#bfbfb3" fill-opacity="0.501961" />
    <path d="M 928 403 L 941 404 L 920 410 Z" fill="#85827d" fill-opacity="0.501961" />
    <path d="M 347 834 L 420 661 L 395 879 Z" fill="#dfc5ad" fill-opacity="0.501961" />
    <path d="M 372 551 L 395 574 L 398 630 Z" fill="#53443d" fill-opacity="0.501961" />
    <path d="M 421 1027 L 423 1065 L 443 1091 Z" fill="#ba9f8a" fill-opacity="0.501961" />
    <path d="M 352 627 L 360 652 L 375 661 Z" fill="#cdb9a1" fill-opacity="0.501961" />
    <path d="M 928 583 L 975 655 L 990 614 Z" fill="#e5e7e1" fill-opacity="0.501961" />
    <path d="M 385 819 L 488 990 L 438 814 Z" fill="#e9d9cb" fill-opacity="0.501961" />
    <path d="M 790 618 L 810 650 L 744 618 Z" fill="#594d4e" fill-opacity="0.501961" />
    <path d="M 650 1453 L 565 1416 L 638 1360 Z" fill="#eae8eb" fill-opacity="0.501961" />
    <path d="M 289 414 L 350 502 L 286 567 Z" fill="#0a0a09" fill-opacity="0.501961" />
    <path d="M 880 1087 L 857 1029 L 828 1034 Z" fill="#2a1f21" fill-opacity="0.501961" />
    <path d="M 512 738 L 481 705 L 496 687 Z" fill="#1a0609" fill-opacity="0.501961" />
    <path d="M 559 757 L 643 958 L 626 734 Z" fill="#d3a58e" fill-opacity="0.501961" />
    <path d="M 273 289 L 337 -16 L -16 243 Z" fill="#d1d1c9" fill-opacity="0.501961" />
    <path d="M 544 467 L 447 516 L 495 599 Z" fill="#ac846b" fill-opacity="0.501961" />
    <path d="M 473 712 L 458 706 L 486 694 Z" fill="#b9aaac" fill-opacity="0.501961" />
    <path d="M 498 920 L 488 752 L 557 832 Z" fill="#cfac93" fill-opacity="0.501961" />
    <path d="M 288 1655 L 618 1502 L 592 1684 Z" fill="#e7e5e9" fill-opacity="0.501961" />
    <path d="M 533 923 L 513 875 L 591 933 Z" fill="#be8f79" fill-opacity="0.501961" />
    <path d="M 506 761 L 520 726 L 559 758 Z" fill="#b08e7e" fill-opacity="0.501961" />
    <path d="M 797 639 L 829 705 L 789 679 Z" fill="#9e7c68" fill-opacity="0.501961" />
    <path d="M 878 992 L 891 839 L 982 749 Z" fill="#e9ebe7" fill-opacity="0.501961" />
    <path d="M 495 613 L 474 623 L 437 599 Z" fill="#7f6e6c" fill-opacity="0.501961" />
    <path d="M 576 690 L 551 622 L 583 636 Z" fill="#bb9d8e" fill-opacity="0.501961" />
    <path d="M 510 1101 L 617 1159 L 653 1089 Z" fill="#dac4b2" fill-opacity="0.501961" />
    <path d="M 774 482 L 790 293 L 731 262 Z" fill="#17171a" fill-opacity="0.501961" />
    <path d="M 933 708 L 904 685 L 908 637 Z" fill="#e4caae" fill-opacity="0.501961" />
    <path d="M 777 563 L 754 501 L 706 463 Z" fill="#785a4b" fill-opacity="0.501961" />
    <path d="M 320 622 L 305 658 L 308 600 Z" fill="#6b706b" fill-opacity="0.501961" />
    <path d="M 265 422 L 294 418 L 270 413 Z" fill="#242321" fill-opacity="0.501961" />
    <path d="M -16 1560 L 130 1684 L 4 1656 Z" fill="#fcfdff" fill-opacity="0.501961" />
    <path d="M 907 328 L 911 341 L 896 320 Z" fill="#3f3e36" fill-opacity="0.501961" />
    <path d="M 839 1318 L 799 1266 L 770 1332 Z" fill="#e4dedf" fill-opacity="0.501961" />
    <path d="M 555 624 L 660 497 L 484 614 Z" fill="#cda990" fill-opacity="0.501961" />
    <path d="M 739 991 L 730 1140 L 866 932 Z" fill="#dec2a6" fill-opacity="0.501961" />
    <path d="M 941 504 L 921 473 L 887 493 Z" fill="#0b0b0b" fill-opacity="0.501961" />
    <path d="M 795 683 L 771 678 L 809 702 Z" fill="#1a0805" fill-opacity="0.501961" />
    <path d="M 309 1133 L 320 1234 L 355 1166 Z" fill="#d8cfd0" fill-opacity="0.501961" />
    <path d="M 786 688 L 774 711 L 764 680 Z" fill="#cac4c5" fill-opacity="0.501961" />
    <path d="M -16 781 L 349 832 L 69 534 Z" fill="#e3e3dd" fill-opacity="0.501961" />
    <path d="M 929 577 L 892 655 L 875 505 Z" fill="#141316" fill-opacity="0.501961" />
    <path d="M 704 986 L 687 1005 L 746 983 Z" fill="#7d4243" fill-opacity="0.501961" />
    <path d="M 568 127 L 624 118 L 567 211 Z" fill="#0f0e11" fill-opacity="0.501961" />
    <path d="M 581 1002 L 537 1002 L 552 1010 Z" fill="#5c3934" fill-opacity="0.501961" />
    <path d="M 371 629 L 352 585 L 349 602 Z" fill="#a59077" fill-opacity="0.501961" />
    <path d="M 897 649 L 934 613 L 927 670 Z" fill="#cca48a" fill-opacity="0.501961" />
    <path d="M 612 1018 L 660 1004 L 577 1005 Z" fill="#7f3635" fill-opacity="0.501961" />
    <path d="M 628 1059 L 695 1045 L 751 991 Z" fill="#b3806f" fill-opacity="0.501961" />
    <path d="M 882 671 L 907 740 L 904 688 Z" fill="#281f21" fill-opacity="0.501961" />
    <path d="M 711 684 L 687 721 L 732 726 Z" fill="#917171" fill-opacity="0.501961" />
    <path d="M 520 694 L 524 707 L 491 687 Z" fill="#000000" fill-opacity="0.501961" />
    <path d="M 321 496 L 385 599 L 366 523 Z" fill="#1d1b1c" fill-opacity="0.501961" />
    <path d="M 754 727 L 803 742 L 721 777 Z" fill="#dabfac" fill-opacity="0.501961" />
    <path d="M 318 687 L 338 713 L 334 737 Z" fill="#da865d" fill-opacity="0.501961" />
    <path d="M 695 1477 L 698 1435 L 778 1381 Z" fill="#e0dce0" fill-opacity="0.501961" />
    <path d="M 674 146 L 687 141 L 707 149 Z" fill="#535251" fill-opacity="0.501961" />
    <path d="M 338 640 L 369 660 L 336 623 Z" fill="#1d1a1e" fill-opacity="0.501961" />
    <path d="M 601 963 L 557 940 L 686 871 Z" fill="#caa392" fill-opacity="0.501961" />
    <path d="M 425 589 L 410 562 L 409 578 Z" fill="#8a7469" fill-opacity="0.501961" />
    <path d="M 336 778 L 367 799 L 337 761 Z" fill="#e7c3a6" fill-opacity="0.501961" />
    <path d="M 423 1075 L 441 1141 L 472 1154 Z" fill="#dfd2d0" fill-opacity="0.501961" />
    <path d="M 1259 156 L 1268 -4 L 1118 -16 Z" fill="#cacbc4" fill-opacity="0.501961" />
    <path d="M 723 992 L 637 1015 L 648 1044 Z" fill="#b54f5f" fill-opacity="0.501961" />
    <path d="M 522 1011 L 601 1018 L 613 1054 Z" fill="#be8e88" fill-opacity="0.501961" />
    <path d="M 918 746 L 928 726 L 905 688 Z" fill="#bb8067" fill-opacity="0.501961" />
    <path d="M 883 337 L 912 347 L 932 406 Z" fill="#201e1c" fill-opacity="0.501961" />
    <path d="M 680 642 L 738 654 L 670 668 Z" fill="#72615e" fill-opacity="0.501961" />
    <path d="M 900 319 L 871 305 L 864 285 Z" fill="#3c3c3a" fill-opacity="0.501961" />
  </g>
</svg>
