<svg width="100" height="100" viewBox="0 0 80 80"><path d="M16.126 10.646l-.056 9.537-.903.056c-.508.038-1.034-.037-1.185-.169-.225-.187-.263-1.69-.263-9.387 0-10.42.188-9.425-1.692-8.843l-1.034.338-.094 8.993-.094 9.012-.997.056c-.583.038-1.128-.037-1.278-.169-.226-.187-.263-1.539-.263-8.166 0-7.323-.02-7.96-.32-7.96-.17 0-1.128.825-2.144 1.839C4.186 7.416 3.867 7.867 3.04 9.594c-1.579 3.23-1.598 3.305-1.673 10.72l-.094 6.534h12.616c6.939 0 12.617-.075 12.617-.15 0-.244 2.237-2.009 3.591-2.816 1.636-.995 3.535-1.784 5.547-2.31 2.463-.638 6.393-.62 8.931.057 3.009.807 5.96 2.328 8.198 4.224l1.166.995h25.064l-.076-6.627c-.075-6.177-.112-6.703-.507-8.017-.79-2.666-1.749-4.206-4.043-6.496-2.294-2.272-3.817-3.23-6.505-4.055l-1.41-.432-22.507-.057-22.526-.056-.037 9.538-.057 9.537-.902.056c-.508.038-1.034-.037-1.185-.169-.225-.187-.263-1.708-.263-9.575V1.127h-2.82l-.038 9.519zm54-2.29c.32.168.734.619.941 1.032.338.676.376 1.107.376 5.2 0 6.459.207 6.252-6.186 6.252-4.851 0-5.434-.131-6.054-1.352-.358-.694-.376-1.032-.32-5.425l.056-4.713.696-.638.715-.638h4.606c3.78 0 4.72.056 5.17.281z"/><path d="M37.88 25.102c-6.618.92-11.996 6.215-13.067 12.88-.32 1.933-.15 5.069.376 6.89.733 2.572 1.73 4.187 3.948 6.383 2.2 2.216 3.63 3.136 5.867 3.849 8.8 2.779 17.825-2.103 20.1-10.89.507-1.952.545-5.632.094-7.415-.828-3.21-1.843-4.957-4.344-7.416-2.425-2.422-4.512-3.511-7.765-4.15-1.298-.244-3.892-.319-5.209-.13zm4.137 4.656c1.467.3 4.4 1.69 5.265 2.497 1.523 1.408 2.764 3.436 3.403 5.595.47 1.54.414 4.093-.094 5.708-1.429 4.524-5.754 7.753-10.36 7.753-1.692 0-2.99-.337-4.889-1.239-3.666-1.727-6.073-5.576-6.073-9.706-.019-5.05 3.648-9.5 8.724-10.589 1.58-.357 2.426-.357 4.024-.019z"/><path d="M1.347 47.632l.057 18.925.432 1.408c.827 2.684 1.786 4.205 4.061 6.496 2.332 2.309 3.893 3.266 6.619 4.055l1.485.432h52.083l1.486-.432c2.99-.864 5.076-2.16 7.314-4.544 1.56-1.652 2.84-3.867 3.554-6.195l.432-1.408.056-18.831.057-18.812H67.4c-10.078 0-11.563.037-11.563.281 0 .15.3.751.677 1.314 3.553 5.577 3.91 12.73.94 18.662-3.046 6.046-8.65 9.932-15.475 10.72-5.49.64-11.845-1.727-15.794-5.894-1.58-1.653-2.463-2.967-3.629-5.426-1.372-2.835-1.767-4.675-1.767-8.017 0-2.197.075-3.042.414-4.393.489-1.972 1.391-4.112 2.35-5.614.376-.6.696-1.202.696-1.352 0-.244-1.467-.281-11.47-.281H1.291l.056 18.906z"/></svg>