<svg  viewBox="0 0 512 512">
  <circle cx="256" cy="256" r="256" fill="#2e2d30"/>
  <path d="M256 0c-11.317 0-22.461.744-33.391 2.167C348.216 18.53 445.217 125.933 445.217 256s-97.002 237.47-222.609 253.833A258.556 258.556 0 0 0 256 512c141.385 0 256-114.616 256-256S397.385 0 256 0z" fill="#1d1d20"/>
  <path d="M256 47.304c-115.075 0-208.696 93.62-208.696 208.696S140.925 464.696 256 464.696 464.696 371.075 464.696 256 371.075 47.304 256 47.304zm121.919 136.147l41.499-28.128c13.274 21.468 22.446 45.727 26.395 71.683l-49.87 5.412a140.95 140.95 0 0 0-18.024-48.967zM134.081 328.549l-41.499 28.128c-13.274-21.468-22.446-45.727-26.395-71.683l49.87-5.412a140.95 140.95 0 0 0 18.024 48.967zm14.2-136.321l41.444 28.43A74.658 74.658 0 0 0 180.87 256c0 11.605 2.647 22.6 7.365 32.422l-42.645 26.593c-9.442-17.594-14.807-37.689-14.807-59.015 0-23.275 6.39-45.082 17.498-63.772zM256 314.435c-32.22 0-58.435-26.213-58.435-58.435S223.78 197.565 256 197.565s58.435 26.213 58.435 58.435S288.22 314.435 256 314.435zm8.348-133.09v-50.277c36.389 2.408 68.578 20.422 89.912 47.403l-41.458 28.439c-12.07-13.947-29.166-23.423-48.454-25.565zm0-67.005V64.193c26.434 1.136 51.499 7.638 74.131 18.448l-23.491 44.301a140.835 140.835 0 0 0-50.64-12.602zm-16.696 0a140.92 140.92 0 0 0-63.865 19.542l-28.015-41.58c26.968-16.573 58.321-26.665 91.881-28.109v50.147zm0 16.728v50.277c-19.288 2.143-36.384 11.618-48.455 25.567l-41.458-28.439c21.335-26.983 53.524-44.998 89.913-47.405zm-50.546 171.497c12.142 15.326 30.116 25.82 50.547 28.09v50.277c-38.315-2.534-71.972-22.377-93.205-51.765l42.658-26.602zm50.546 95.095v50.147c-26.434-1.136-51.499-7.638-74.131-18.448l23.491-44.301a140.835 140.835 0 0 0 50.64 12.602zm16.696 0a140.92 140.92 0 0 0 63.865-19.542l28.015 41.58c-26.968 16.573-58.321 26.665-91.881 28.109V397.66zm0-16.728v-50.277c20.431-2.27 38.403-12.766 50.547-28.09l42.659 26.602c-21.235 29.389-54.891 49.231-93.206 51.765zm102.063-65.917l-42.645-26.594a74.677 74.677 0 0 0 7.365-32.422 74.655 74.655 0 0 0-8.855-35.342l41.444-28.43c11.108 18.692 17.498 40.499 17.498 63.774-.001 21.325-5.365 41.42-14.807 59.014zm43.626-173.504l-41.505 28.132a143.013 143.013 0 0 0-38.805-34.861l23.486-44.291a193.5 193.5 0 0 1 56.824 51.02zm-268.097-39.86l28.015 41.579a142.99 142.99 0 0 0-36.993 42.11l-44.869-22.367a193.425 193.425 0 0 1 53.847-61.322zm-61.323 76.251l44.877 22.37c-7.337 17.117-11.406 35.956-11.406 55.728 0 2.342.06 4.669.174 6.983l-49.85 5.409A192.683 192.683 0 0 1 64 256c0-27.795 5.945-54.225 16.617-78.098zm21.346 192.587l41.505-28.132a143.013 143.013 0 0 0 38.805 34.861l-23.486 44.291a193.5 193.5 0 0 1-56.824-51.02zm268.097 39.86l-28.015-41.579c14.938-11.425 27.555-25.739 36.993-42.11l44.869 22.365a193.41 193.41 0 0 1-53.847 61.324zm61.323-76.251l-44.877-22.37c7.337-17.117 11.406-35.956 11.406-55.728 0-2.342-.06-4.669-.174-6.983l49.85-5.409c.264 4.099.412 8.228.412 12.392 0 27.795-5.945 54.225-16.617 78.098z" fill="#e0e0e3"/>
</svg>
