<?xml version="1.0" encoding="utf-8"?>
<!-- Generator: Adobe Illustrator 18.0.0, SVG Export Plug-In . SVG Version: 6.00 Build 0)  -->
<!DOCTYPE svg PUBLIC "-//W3C//DTD SVG 1.1//EN" "http://www.w3.org/Graphics/SVG/1.1/DTD/svg11.dtd">
<svg version="1.1" id="Layer_1" xmlns="http://www.w3.org/2000/svg" xmlns:xlink="http://www.w3.org/1999/xlink" x="0px" y="0px"
	 viewBox="0 0 854 144" style="enable-background:new 0 0 854 144;" xml:space="preserve"  height="20">
<path style="fill:#FFFFFF;" d="M284,145c0.1-18.3,0.2-36.6,0.2-54.9c0-18.1,0-36.3,0-54.4c0-1.8,0-3.6,0-5.7c9.6,0,18.7,0,27.9,0
	c0.3,2,0.5,3.8,0.7,5.1c4.9-2.1,9.6-5.1,14.6-6c24.1-4.5,42.8,10.6,44.2,35.8c0.3,6.4-0.4,13.1-2.2,19.2
	c-6.6,22.5-30.7,32.9-52.1,23c-1.3-0.6-2.6-1.2-4.3-2c0,13.6,0,26.8,0,40C303.3,145,293.7,145,284,145z M342.3,70.2
	c-0.2-2.8-0.2-5-0.6-7.1C339,50,325.6,45,314.9,53.2c-1.1,0.9-2.3,2.6-2.3,4c-0.2,8.5-0.2,16.9,0,25.4c0,1.2,0.6,2.8,1.5,3.4
	c12.2,8.1,23.6,4.5,27.1-8.4C341.8,74.9,342,72.2,342.3,70.2z M89,1c-0.1,2-0.4,4-0.4,5.9c0,31.8,0,63.6,0,95.5c0,2,0,3.9,0,6.3
	c-9.6,0-18.9,0-28.2,0c-0.1-1.9-0.3-3.7-0.4-6.4c-6.6,5-13.3,8-21.3,8.1C20.5,110.5,6.1,99.4,2.1,81.7C1.8,80.5,1.4,79.2,1,78
	c0-5.3,0-10.7,0-16c0.3-0.6,0.7-1.1,0.8-1.7c5.3-24,22.2-35.6,46.1-31.2c4.1,0.7,7.9,2.7,12.1,4.1c0-10.9,0-21.6,0-32.2
	C69.7,1,79.3,1,89,1z M60.2,68.7c0-3.8,0.1-7.7,0-11.5c0-1.4-0.1-3.5-0.9-4.1c-5.4-3.6-11.1-6.2-17.8-3.9
	c-6.6,2.3-10.6,9.8-10.6,19.8c0,10.4,3.2,16.7,10.3,19.2c5.7,2,11,0.8,16.2-2.3c4.4-2.7,2.5-6.7,2.8-10.3
	C60.4,73.4,60.2,71,60.2,68.7z M566,1c0.1,2,0.3,4,0.3,6c0,32,0,64,0,95.9c0,1.9,0,3.9,0,5.7c10,0,19.2,0,28.8,0
	c0-12.1,0-23.8,0-36.6c1.7,1.9,2.8,3.1,3.8,4.3c8,9.8,15.9,19.7,24,29.4c1,1.2,2.4,3,3.6,3c11.2,0.2,22.4,0.1,34.7,0.1
	c-12.4-14.7-24-28.5-35.7-42.3c10.3-12.3,20.3-24.2,31-36.9c-11.5,0-21.6-0.1-31.8,0.1c-1.5,0-3.2,1.5-4.3,2.7
	c-7.2,8.7-14.2,17.6-21.3,26.4c-1.1,1.3-2.2,2.5-4.1,4.6c0-21.7,0-42.2,0-62.6C585.3,1,575.7,1,566,1z M855,77
	c-0.3,0.4-0.7,0.8-0.8,1.2c-3.7,20.5-20.8,31-38.8,31.8c-7.1,0.3-14.4,0.1-21.3-1.4c-20.7-4.7-31.4-20.7-30.1-43.7
	c1-18.5,15-33,34.4-35.8c10.2-1.5,20.3-1.2,30.1,2c13.7,4.6,22.3,13.9,25.5,28.1c0.2,0.9,0.6,1.8,1,2.8C855,67,855,72,855,77z
	 M825.6,70.1c-0.5-3.6-0.7-6.5-1.4-9.2c-2.1-7.7-7.2-11.7-14.7-11.8c-7.6-0.1-13.1,4.1-15,12c-1.6,6.6-1.6,13.2,1.2,19.5
	c2.7,6,7.4,8.7,13.9,8.7c6.5-0.1,11.3-2.8,13.6-8.9C824.5,76.9,825,73.1,825.6,70.1z M709,145c0.6-1.7,1-3.5,1.7-5.1
	c16.3-34.8,32.6-69.6,48.9-104.4c0.8-1.7,1.5-3.5,2.6-5.8c-8.3,0-15.8,0.2-23.3-0.1c-3.2-0.1-4.7,1.2-5.9,4
	c-4.6,10.3-9.5,20.6-14.3,30.8c-0.6,1.2-1.3,2.3-2.3,4.1c-5-12.2-9.6-23.6-14.4-34.9c-0.6-1.4-1.8-3.6-2.8-3.6
	c-9.4-0.3-18.8-0.2-28.8-0.2c1,2.3,1.5,3.9,2.2,5.3c9.1,19.8,18.2,39.6,27,59.5c1,2.2,0.9,5.6,0,7.8c-6.4,14.3-13.1,28.4-19.7,42.6
	C689.7,145,699.3,145,709,145z M226.9,110.7c-4.9-0.7-10.1-1-15.1-2.2c-20.4-5.1-31.1-20.8-29.8-43.5c1-18.6,14.8-33.6,34.3-35.7
	c9.1-1,18.8-0.8,27.7,1.2c19.4,4.4,29.7,20,29,41.5c-0.6,18.4-12.9,33-31.5,36.8C236.8,109.8,232,110.1,226.9,110.7z M243.7,69.7
	c-0.6-3.6-0.8-6.6-1.6-9.4c-2.2-7.4-7.3-11.2-14.6-11.2c-7.3,0-12.5,3.8-14.6,11.2c-2,6.9-2,13.8,1,20.5c2.6,6,7.4,8.7,13.9,8.6
	c6.5-0.1,11.3-2.9,13.6-9C242.6,76.8,243,73,243.7,69.7z M510.2,110.7c-4.9-0.7-10.2-0.9-15.4-2.2c-20.4-5.1-31.2-21-29.8-43.5
	c1.1-18.7,14.8-33.6,34.3-35.7c9.1-1,18.8-0.8,27.7,1.2c19.3,4.3,29.5,19.8,29,41c-0.5,18.8-12.7,33.5-31.4,37.3
	C520.1,109.8,515.4,110.1,510.2,110.7z M526.9,69.9c-0.7-3.8-1-7.5-2.1-10.9c-2.1-6.4-7.3-9.8-14.1-9.9c-6.7-0.1-12,3.3-14.3,9.6
	c-2.5,7.3-2.6,14.7,0.5,21.9c2.6,6,7.4,8.7,13.8,8.7c6.5,0,11.3-2.8,13.6-8.9C525.6,77.1,526,73.4,526.9,69.9z M432.8,87.8
	c-4.2,0.4-8.5-1.7-8.7-6.4C423.7,70.8,424,60.2,424,49c8.7,0,17.2,0,26,0c0-6.6,0-12.7,0-19.4c-8.8,0-17.4,0-26.5,0
	c0-8.2,0-15.8,0-24.6c-2.4,1.4-4.2,1.9-5.3,3c-11.3,11.3-22.6,22.7-33.6,34.2c-1.4,1.5-1.7,4-2.9,7.1c5.4,0,9.3,0,13.6,0
	c0,11.6-0.3,22.5,0.1,33.5c0.5,15.5,7.7,24.4,21.7,26.8c11.3,1.9,22.2,0,32.8-4.2c1.2-0.5,2.5-2.3,2.5-3.5c0.3-6.1,0.1-12.3,0.1-18
	C445.4,85.4,439.2,87.1,432.8,87.8z M134.2,108.8c0-9.4,0.3-18.5-0.1-27.6c-0.3-7.3,2.6-13.3,6.6-18.9c4.7-6.5,12.4-8.1,19.5-4.2
	c1.9,1,3.6,2.3,5.7,3.7c3.4-9.3,6.8-18.5,10.2-27.6c-7.6-5.2-15.3-7.7-23.9-4.7c-8.3,2.8-12.6,10-18.3,16.3c0-5.2,0-10.5,0-15.6
	c-9.6,0-18.6,0-27.7,0c0,26.4,0,52.3,0,78.6C115.8,108.8,124.7,108.8,134.2,108.8z"/>
</svg>
