<?xml version="1.0" encoding="utf-8"?>
<!-- Generator: Adobe Illustrator 18.0.0, SVG Export Plug-In . SVG Version: 6.00 Build 0)  -->
<!DOCTYPE svg PUBLIC "-//W3C//DTD SVG 1.1//EN" "http://www.w3.org/Graphics/SVG/1.1/DTD/svg11.dtd">
<svg version="1.1" id="Layer_1" xmlns="http://www.w3.org/2000/svg" xmlns:xlink="http://www.w3.org/1999/xlink" x="0px" y="0px"
	 viewBox="0 0 331.8 164.2" style="enable-background:new 0 0 331.8 164.2;" xml:space="preserve" height="20">
<g>
	<linearGradient id="SVGID_1_" gradientUnits="userSpaceOnUse" x1="165.9209" y1="164.3857" x2="165.9209" y2="0.2334">
		<stop  offset="0" style="stop-color:#225FBC"/>
		<stop  offset="1" style="stop-color:#1FB2F0"/>
	</linearGradient>
	<polyline style="fill-rule:evenodd;clip-rule:evenodd;fill:url(#SVGID_1_);" points="0,164.2 167.7,164.2 331.8,0 0,0 0,164.2 	"/>
	<path style="fill-rule:evenodd;clip-rule:evenodd;fill:#FFFFFF;" d="M196.9,30.9l-32.7,0v77.7l-28.5-77.7h-28.3L83.1,95.8
		c-2.6-16.4-19.5-22-32.9-26.3c-8.8-2.8-18.1-7-18-11.6c0.1-3.8,5-7.3,14.8-6.7c6.6,0.4,12.4,0.9,23.9,6.4l11.4-19.8
		c-10.5-5.4-25.1-8.7-37-8.8h-0.1c-13.9,0-25.5,4.5-32.7,11.9c-5,5.2-7.7,11.8-7.8,19c-0.2,10,3.5,17.1,11.2,22.8
		c6.5,4.8,14.9,7.9,22.2,10.2c9.1,2.8,16.5,5.2,16.4,10.4c0,1.9-0.8,3.7-2.1,5.1c-2.3,2.3-5.7,3.2-10.5,3.3
		c-9.3,0.2-16.1-1.3-27-7.7l-10.1,20c10.9,6.2,23.8,9.8,37,9.8l1.7,0c11.5-0.2,20.7-3.5,28.1-9.4c0.4-0.3,0.8-0.7,1.2-1l-3.3,8.8H99
		l5-15.1c5.2,1.8,11.1,2.8,17.4,2.8c6.1,0,11.9-0.9,17-2.6l4.8,15h48.4V101h10.6c25.5,0,40.6-13,40.6-34.8
		C242.8,42,228.2,30.9,196.9,30.9z M121.4,97.3c-3.8,0-7.4-0.7-10.5-1.8l10.4-32.7h0.2l10.1,32.8C128.6,96.7,125.2,97.3,121.4,97.3z
		 M198.9,78.6h-7.2V52.2h7.2c9.6,0,17.2,3.2,17.2,13C216.1,75.4,208.5,78.6,198.9,78.6"/>
</g>
</svg>
