<?xml version="1.0" encoding="utf-8"?>
<!-- Generator: Adobe Illustrator 18.0.0, SVG Export Plug-In . SVG Version: 6.00 Build 0)  -->
<!DOCTYPE svg PUBLIC "-//W3C//DTD SVG 1.1//EN" "http://www.w3.org/Graphics/SVG/1.1/DTD/svg11.dtd">
<svg version="1.1" id="Layer_1" xmlns="http://www.w3.org/2000/svg" xmlns:xlink="http://www.w3.org/1999/xlink" x="0px" y="0px"
	 viewBox="0 0 273 28.5" style="enable-background:new 0 0 273 28.5;" xml:space="preserve" height="20">
<g>
	<path style="fill:#FFFFFF;" d="M41.3,25c-2,0-3.8,0-5.6,0c-3.4-0.1-4.9-1.4-4.9-4.8c-0.1-5.2-0.1-10.3,0-15.5
		c0.1-3.3,1.5-4.7,4.7-4.7c5.6,0,11.2,0,16.8,0c3.1,0,4.6,1.5,4.6,4.6c0.1,5.2,0.1,10.5,0,15.7c0,3.2-1.5,4.6-4.8,4.7
		c-1.8,0-3.7,0-5.6,0c0,1.2,0,2.3,0,3.4c-1.8,0-3.5,0-5.3,0C41.3,27.4,41.3,26.3,41.3,25z M51.4,20.2c0-5.3,0-10.6,0-15.8
		c-5,0-10,0-14.9,0c0,5.3,0,10.5,0,15.8c1.6,0,3.2,0,4.8,0c0-0.9,0-1.7,0-2.5c1.8,0,3.6,0,5.4,0c0,0.9,0,1.7,0,2.6
		C48.3,20.2,49.8,20.2,51.4,20.2z"/>
	<path style="fill:#FFFFFF;" d="M6,4.4c0,1.7,0,3.4,0,5.3c0.5,0,0.9,0,1.3,0c4.5,0,9,0,13.4,0c0.3,0,0.6,0,0.8,0
		c3.8,0.1,5,1.3,5.2,5c0.1,1.9,0.1,3.8,0,5.7c-0.1,3.1-1.6,4.5-4.7,4.5c-2.4,0.1-4.9,0-7.3,0c-3.4,0-6.7,0.1-10.1-0.1
		c-1.2-0.1-2.5-0.5-3.4-1.1C0,23.1-0.1,21.8,0,20.3c7.3,0,14.5,0,21.8,0c0-1.9,0-3.7,0-5.6c-0.4,0-0.8,0-1.3,0c-4.5,0-9,0-13.4,0
		C2.3,14.7,1,13.4,1,8.6c0-1.4,0-2.9,0.1-4.3c0.2-2.7,1.5-4.1,4.3-4.2C8.2,0,11.1,0,14,0c2.3,0,4.6,0,7,0c4.2,0,5.6,1.4,5.6,5.6
		c0,0.3,0,0.5,0,0.9c-1.7,0-3.3,0-5,0c0-0.7,0-1.4,0-2.1C16.3,4.4,11.1,4.4,6,4.4z"/>
	<path style="fill:#FFFFFF;" d="M136.4,15.6c3.1,3.2,6.1,6.3,9.1,9.4c-2.4,0-4.8,0-7.1,0c-0.4,0-0.8-0.4-1-0.7
		c-2.2-2.4-4.5-4.8-6.6-7.3c-0.9-1.1-1.9-1.7-3.4-1.5c-0.5,0.1-1,0-1.6,0c0,3.2,0,6.2,0,9.4c-1.9,0-3.6,0-5.5,0c0-8.3,0-16.5,0-24.9
		c0.4,0,0.8-0.1,1.1-0.1c5.7,0,11.4,0,17,0c3.6,0,5.1,1.4,5.1,5.1c0,1.8,0,3.6,0,5.4c0,3.5-1.3,4.9-4.9,5.1
		C137.9,15.7,137.2,15.6,136.4,15.6z M125.8,11.3c2.9,0,5.8,0,8.7,0c0.7,0,1.4,0,2.1-0.1c0.9-0.1,1.4-0.7,1.5-1.6c0-1.2,0-2.4,0-3.6
		c0-0.9-0.6-1.6-1.5-1.6c-3.6-0.1-7.2,0-10.8,0C125.8,6.7,125.8,9,125.8,11.3z"/>
	<path style="fill:#FFFFFF;" d="M230.2,25.1c-1.1,0-2.2,0.1-3.3,0c-0.4,0-0.9-0.4-1.1-0.7c-4.4-5.1-8.9-10.3-13.3-15.5
		c-0.3-0.3-0.5-0.6-0.9-1c0,5.8,0,11.4,0,17.1c-1.6,0-3.3,0-5,0c0-8.3,0-16.5,0-25c1.2,0,2.3-0.1,3.4,0c0.5,0.1,0.9,0.6,1.3,0.9
		c4.3,5,8.7,10,13,15.1c0.3,0.3,0.5,0.6,0.9,1c0-5.8,0-11.3,0-17c1.6,0,3.3,0,5,0C230.2,8.4,230.2,16.7,230.2,25.1z"/>
	<path style="fill:#FFFFFF;" d="M61.4,0.1c1.9,0,3.7,0,5.6,0c0,6.7,0,13.4,0,20.1c4.4,0,8.8,0,13.2,0c0-6.7,0-13.3,0-20.1
		c1.9,0,3.7,0,5.6,0c0,0.4,0,0.8,0,1.2c0,6,0,12,0,18c0,4.4-1.2,5.7-5.5,5.8c-4.8,0.1-9.5,0.1-14.3,0c-2.9,0-4.2-1.3-4.5-4.2
		c-0.1-0.7-0.1-1.4-0.1-2C61.4,12.6,61.4,6.4,61.4,0.1z"/>
	<path style="fill:#FFFFFF;" d="M117.9,25c-2,0-3.9,0-5.8,0c-0.8-1.6-1.6-3.1-2.3-4.7c-0.3-0.6-0.6-0.8-1.3-0.8c-4.1,0-8.2,0-12.3,0
		c-0.8,0-1.1,0.3-1.4,1c-0.6,1.3-1.2,2.5-1.8,3.8c-0.3,0.6-0.6,0.9-1.2,0.8c-1.4-0.1-2.9,0-4.5,0c1.2-2.4,2.4-4.8,3.6-7.1
		c2.9-5.7,5.8-11.4,8.7-17c0.3-0.7,0.7-1,1.4-0.9c1.2,0.1,2.3,0,3.5,0c0.4,0,0.8,0.3,1,0.6c4.2,8,8.3,16.1,12.5,24.1
		C117.8,24.8,117.8,24.9,117.9,25z M102.3,5c-1.7,3.5-3.3,6.7-4.9,10c3.3,0,6.4,0,9.7,0C105.5,11.6,103.9,8.4,102.3,5z"/>
	<path style="fill:#FFFFFF;" d="M257.4,15.4c-1.8,2.3-3.8,4.5-5.4,6.9c-1.5,2.3-3.2,3.3-5.9,2.8c-0.8-0.1-1.7,0-2.7,0
		c3.7-4.4,7.2-8.6,10.8-12.9c-3.6-4-7.2-8-10.9-12.1c2.4,0,4.6,0,6.8,0c0.3,0,0.7,0.4,0.9,0.7c1.9,2.2,3.8,4.4,5.6,6.5
		c0.3,0.4,0.6,0.7,1,1.1c2.1-2.5,4.1-4.9,6-7.4c0.5-0.7,1.1-1,2-1c1.6,0.1,3.1,0,5,0c-3.4,3.9-6.6,7.7-9.9,11.5
		c4,4.5,8.1,8.9,12.3,13.6c-2.5,0-4.8,0-7.1,0c-0.3,0-0.6-0.4-0.8-0.6C262.6,21.4,260,18.5,257.4,15.4z"/>
	<path style="fill:#FFFFFF;" d="M153.9,4.3c0,5.4,0,10.6,0,15.9c5.3,0,10.5,0,15.8,0c0,1.6,0,3.2,0,4.8c-7.1,0-14.2,0-21.4,0
		c0-8.3,0-16.6,0-24.9c7,0,14.1,0,21.2,0c0,1.3,0,2.7,0,4.2C164.3,4.3,159.2,4.3,153.9,4.3z"/>
	<path style="fill:#FFFFFF;" d="M181.1,25c0-8.3,0-16.5,0-24.9c7,0,14.1,0,21.2,0c0,1.4,0,2.7,0,4.2c-5.2,0-10.3,0-15.5,0
		c0,5.3,0,10.5,0,15.9c5.2,0,10.5,0,15.8,0c0,1.7,0,3.2,0,4.8C195.4,25,188.3,25,181.1,25z"/>
	<path style="fill:#FFFFFF;" d="M240.3,25c-1.8,0-3.6,0-5.5,0c0-8.3,0-16.6,0-24.9c1.8,0,3.6,0,5.5,0C240.3,8.4,240.3,16.6,240.3,25
		z"/>
	<path style="fill:#EB242C;" d="M158.4,14.6c0-1.6,0-3,0-4.6c3,0,5.9,0,9,0c0,1.5,0,3,0,4.6C164.4,14.6,161.5,14.6,158.4,14.6z"/>
	<path style="fill:#E8242C;" d="M191.3,9.9c0.3,0,0.5-0.1,0.7-0.1c2.7,0,5.4,0,8.2,0c0,1.6,0,3.1,0,4.7c-3,0-5.9,0-8.9,0
		C191.3,13,191.3,11.5,191.3,9.9z"/>
</g>
</svg>
